<svg width="40" height="40" viewBox="0 0 40 40" fill="none" xmlns="http://www.w3.org/2000/svg">
<circle cx="20" cy="20" r="20" fill="#1258FF"/>
<path d="M20.4709 26.1591C23.0845 26.1591 24.9538 24.7216 24.9482 22.733C24.9538 21.2841 24.0334 20.25 22.3232 20.0341V19.9432C23.6243 19.7102 24.522 18.7898 24.5163 17.483C24.522 15.6477 22.9141 14.2045 20.505 14.2045C18.1186 14.2045 16.3232 15.6023 16.2891 17.6136H18.647C18.6754 16.7273 19.4879 16.1534 20.4936 16.1534C21.4879 16.1534 22.1527 16.7557 22.147 17.6307C22.1527 18.5455 21.3743 19.1648 20.255 19.1648H19.1697V20.9716H20.255C21.5732 20.9716 22.397 21.6307 22.3913 22.5682C22.397 23.4943 21.6016 24.1307 20.4766 24.1307C19.3913 24.1307 18.5788 23.5625 18.5334 22.7102H16.0561C16.0959 24.7443 17.9141 26.1591 20.4709 26.1591Z" fill="white"/>
</svg>
