<svg width="320" height="400" viewBox="0 0 320 400" fill="none" xmlns="http://www.w3.org/2000/svg">
<ellipse cx="143.328" cy="79.2879" rx="1.32884" ry="1.32836" transform="rotate(-90 143.328 79.2879)" fill="#1258FF"/>
<ellipse cx="143.328" cy="98.6707" rx="1.32884" ry="1.32836" transform="rotate(-90 143.328 98.6707)" fill="#1258FF"/>
<ellipse cx="143.328" cy="59.7986" rx="1.32884" ry="1.32836" transform="rotate(-90 143.328 59.7986)" fill="#1258FF"/>
<ellipse cx="143.328" cy="40.3084" rx="1.32884" ry="1.32836" transform="rotate(-90 143.328 40.3084)" fill="#1258FF"/>
<ellipse cx="143.328" cy="20.8191" rx="1.32884" ry="1.32836" transform="rotate(-90 143.328 20.8191)" fill="#1258FF"/>
<ellipse cx="143.328" cy="1.32888" rx="1.32884" ry="1.32836" transform="rotate(-90 143.328 1.32888)" fill="#1258FF"/>
<ellipse cx="162.811" cy="79.2879" rx="1.32884" ry="1.32836" transform="rotate(-90 162.811 79.2879)" fill="#1258FF"/>
<ellipse cx="162.811" cy="98.6712" rx="1.32884" ry="1.32836" transform="rotate(-90 162.811 98.6712)" fill="#1258FF"/>
<ellipse cx="162.811" cy="59.7986" rx="1.32884" ry="1.32836" transform="rotate(-90 162.811 59.7986)" fill="#1258FF"/>
<ellipse cx="162.811" cy="40.3084" rx="1.32884" ry="1.32836" transform="rotate(-90 162.811 40.3084)" fill="#1258FF"/>
<ellipse cx="162.811" cy="20.8191" rx="1.32884" ry="1.32836" transform="rotate(-90 162.811 20.8191)" fill="#1258FF"/>
<ellipse cx="162.811" cy="1.32888" rx="1.32884" ry="1.32836" transform="rotate(-90 162.811 1.32888)" fill="#1258FF"/>
<ellipse cx="182.293" cy="79.2879" rx="1.32884" ry="1.32836" transform="rotate(-90 182.293 79.2879)" fill="#1258FF"/>
<ellipse cx="182.293" cy="98.6712" rx="1.32884" ry="1.32836" transform="rotate(-90 182.293 98.6712)" fill="#1258FF"/>
<ellipse cx="182.293" cy="59.7986" rx="1.32884" ry="1.32836" transform="rotate(-90 182.293 59.7986)" fill="#1258FF"/>
<ellipse cx="182.293" cy="40.3084" rx="1.32884" ry="1.32836" transform="rotate(-90 182.293 40.3084)" fill="#1258FF"/>
<ellipse cx="182.293" cy="20.8191" rx="1.32884" ry="1.32836" transform="rotate(-90 182.293 20.8191)" fill="#1258FF"/>
<ellipse cx="182.293" cy="1.32888" rx="1.32884" ry="1.32836" transform="rotate(-90 182.293 1.32888)" fill="#1258FF"/>
<ellipse cx="201.776" cy="79.2879" rx="1.32884" ry="1.32836" transform="rotate(-90 201.776 79.2879)" fill="#1258FF"/>
<ellipse cx="201.776" cy="98.6712" rx="1.32884" ry="1.32836" transform="rotate(-90 201.776 98.6712)" fill="#1258FF"/>
<ellipse cx="201.776" cy="59.7986" rx="1.32884" ry="1.32836" transform="rotate(-90 201.776 59.7986)" fill="#1258FF"/>
<ellipse cx="201.776" cy="40.3084" rx="1.32884" ry="1.32836" transform="rotate(-90 201.776 40.3084)" fill="#1258FF"/>
<ellipse cx="201.776" cy="20.8191" rx="1.32884" ry="1.32836" transform="rotate(-90 201.776 20.8191)" fill="#1258FF"/>
<ellipse cx="201.776" cy="1.32888" rx="1.32884" ry="1.32836" transform="rotate(-90 201.776 1.32888)" fill="#1258FF"/>
<ellipse cx="221.26" cy="79.2879" rx="1.32884" ry="1.32836" transform="rotate(-90 221.26 79.2879)" fill="#1258FF"/>
<ellipse cx="221.26" cy="98.6712" rx="1.32884" ry="1.32836" transform="rotate(-90 221.26 98.6712)" fill="#1258FF"/>
<ellipse cx="221.258" cy="59.7986" rx="1.32884" ry="1.32836" transform="rotate(-90 221.258 59.7986)" fill="#1258FF"/>
<ellipse cx="221.258" cy="40.3084" rx="1.32884" ry="1.32836" transform="rotate(-90 221.258 40.3084)" fill="#1258FF"/>
<ellipse cx="221.258" cy="20.8191" rx="1.32884" ry="1.32836" transform="rotate(-90 221.258 20.8191)" fill="#1258FF"/>
<ellipse cx="221.258" cy="1.32888" rx="1.32884" ry="1.32836" transform="rotate(-90 221.258 1.32888)" fill="#1258FF"/>
<ellipse cx="240.74" cy="79.2879" rx="1.32884" ry="1.32836" transform="rotate(-90 240.74 79.2879)" fill="#1258FF"/>
<ellipse cx="240.74" cy="98.6712" rx="1.32884" ry="1.32836" transform="rotate(-90 240.74 98.6712)" fill="#1258FF"/>
<ellipse cx="240.742" cy="59.7986" rx="1.32884" ry="1.32836" transform="rotate(-90 240.742 59.7986)" fill="#1258FF"/>
<ellipse cx="240.742" cy="40.3084" rx="1.32884" ry="1.32836" transform="rotate(-90 240.742 40.3084)" fill="#1258FF"/>
<ellipse cx="240.742" cy="20.8191" rx="1.32884" ry="1.32836" transform="rotate(-90 240.742 20.8191)" fill="#1258FF"/>
<ellipse cx="240.742" cy="1.32888" rx="1.32884" ry="1.32836" transform="rotate(-90 240.742 1.32888)" fill="#1258FF"/>
<ellipse cx="260.223" cy="79.2879" rx="1.32884" ry="1.32836" transform="rotate(-90 260.223 79.2879)" fill="#1258FF"/>
<ellipse cx="260.223" cy="98.6712" rx="1.32884" ry="1.32836" transform="rotate(-90 260.223 98.6712)" fill="#1258FF"/>
<ellipse cx="260.223" cy="59.7986" rx="1.32884" ry="1.32836" transform="rotate(-90 260.223 59.7986)" fill="#1258FF"/>
<ellipse cx="260.223" cy="40.3084" rx="1.32884" ry="1.32836" transform="rotate(-90 260.223 40.3084)" fill="#1258FF"/>
<ellipse cx="260.223" cy="20.8191" rx="1.32884" ry="1.32836" transform="rotate(-90 260.223 20.8191)" fill="#1258FF"/>
<ellipse cx="260.223" cy="1.32888" rx="1.32884" ry="1.32836" transform="rotate(-90 260.223 1.32888)" fill="#1258FF"/>
<ellipse cx="279.705" cy="79.2879" rx="1.32884" ry="1.32836" transform="rotate(-90 279.705 79.2879)" fill="#1258FF"/>
<ellipse cx="279.705" cy="98.6712" rx="1.32884" ry="1.32836" transform="rotate(-90 279.705 98.6712)" fill="#1258FF"/>
<ellipse cx="279.705" cy="59.7986" rx="1.32884" ry="1.32836" transform="rotate(-90 279.705 59.7986)" fill="#1258FF"/>
<ellipse cx="279.705" cy="40.3084" rx="1.32884" ry="1.32836" transform="rotate(-90 279.705 40.3084)" fill="#1258FF"/>
<ellipse cx="279.705" cy="20.8191" rx="1.32884" ry="1.32836" transform="rotate(-90 279.705 20.8191)" fill="#1258FF"/>
<ellipse cx="279.705" cy="1.32888" rx="1.32884" ry="1.32836" transform="rotate(-90 279.705 1.32888)" fill="#1258FF"/>
<ellipse cx="299.188" cy="79.2879" rx="1.32884" ry="1.32836" transform="rotate(-90 299.188 79.2879)" fill="#1258FF"/>
<ellipse cx="299.188" cy="98.6712" rx="1.32884" ry="1.32836" transform="rotate(-90 299.188 98.6712)" fill="#1258FF"/>
<ellipse cx="299.19" cy="59.7986" rx="1.32884" ry="1.32836" transform="rotate(-90 299.19 59.7986)" fill="#1258FF"/>
<ellipse cx="299.19" cy="40.3084" rx="1.32884" ry="1.32836" transform="rotate(-90 299.19 40.3084)" fill="#1258FF"/>
<ellipse cx="299.19" cy="20.8191" rx="1.32884" ry="1.32836" transform="rotate(-90 299.19 20.8191)" fill="#1258FF"/>
<ellipse cx="299.19" cy="1.32888" rx="1.32884" ry="1.32836" transform="rotate(-90 299.19 1.32888)" fill="#1258FF"/>
<ellipse cx="318.672" cy="79.2879" rx="1.32884" ry="1.32836" transform="rotate(-90 318.672 79.2879)" fill="#1258FF"/>
<ellipse cx="318.672" cy="98.6712" rx="1.32884" ry="1.32836" transform="rotate(-90 318.672 98.6712)" fill="#1258FF"/>
<ellipse cx="318.672" cy="59.7986" rx="1.32884" ry="1.32836" transform="rotate(-90 318.672 59.7986)" fill="#1258FF"/>
<ellipse cx="318.672" cy="40.3084" rx="1.32884" ry="1.32836" transform="rotate(-90 318.672 40.3084)" fill="#1258FF"/>
<ellipse cx="318.672" cy="20.8191" rx="1.32884" ry="1.32836" transform="rotate(-90 318.672 20.8191)" fill="#1258FF"/>
<ellipse cx="318.672" cy="1.32888" rx="1.32884" ry="1.32836" transform="rotate(-90 318.672 1.32888)" fill="#1258FF"/>
<ellipse cx="20.7117" cy="223.328" rx="1.32885" ry="1.32836" fill="#FFA62B"/>
<ellipse cx="1.32885" cy="223.328" rx="1.32885" ry="1.32836" fill="#FFA62B"/>
<ellipse cx="40.2019" cy="223.328" rx="1.32885" ry="1.32836" fill="#FFA62B"/>
<ellipse cx="59.6902" cy="223.328" rx="1.32885" ry="1.32836" fill="#FFA62B"/>
<ellipse cx="79.1824" cy="223.328" rx="1.32885" ry="1.32836" fill="#FFA62B"/>
<ellipse cx="98.6706" cy="223.328" rx="1.32885" ry="1.32836" fill="#FFA62B"/>
<ellipse cx="20.7117" cy="242.811" rx="1.32885" ry="1.32836" fill="#FFA62B"/>
<ellipse cx="1.32885" cy="242.811" rx="1.32885" ry="1.32836" fill="#FFA62B"/>
<ellipse cx="40.2019" cy="242.811" rx="1.32885" ry="1.32836" fill="#FFA62B"/>
<ellipse cx="59.6902" cy="242.811" rx="1.32885" ry="1.32836" fill="#FFA62B"/>
<ellipse cx="79.1824" cy="242.811" rx="1.32885" ry="1.32836" fill="#FFA62B"/>
<ellipse cx="98.6706" cy="242.811" rx="1.32885" ry="1.32836" fill="#FFA62B"/>
<ellipse cx="20.7117" cy="262.294" rx="1.32885" ry="1.32836" fill="#FFA62B"/>
<ellipse cx="1.32885" cy="262.294" rx="1.32885" ry="1.32836" fill="#FFA62B"/>
<ellipse cx="40.2019" cy="262.294" rx="1.32885" ry="1.32836" fill="#FFA62B"/>
<ellipse cx="59.6902" cy="262.294" rx="1.32885" ry="1.32836" fill="#FFA62B"/>
<ellipse cx="79.1824" cy="262.294" rx="1.32885" ry="1.32836" fill="#FFA62B"/>
<ellipse cx="98.6706" cy="262.294" rx="1.32885" ry="1.32836" fill="#FFA62B"/>
<ellipse cx="20.7117" cy="281.776" rx="1.32885" ry="1.32836" fill="#FFA62B"/>
<ellipse cx="1.32885" cy="281.776" rx="1.32885" ry="1.32836" fill="#FFA62B"/>
<ellipse cx="40.2019" cy="281.776" rx="1.32885" ry="1.32836" fill="#FFA62B"/>
<ellipse cx="59.6902" cy="281.776" rx="1.32885" ry="1.32836" fill="#FFA62B"/>
<ellipse cx="79.1824" cy="281.776" rx="1.32885" ry="1.32836" fill="#FFA62B"/>
<ellipse cx="98.6706" cy="281.776" rx="1.32885" ry="1.32836" fill="#FFA62B"/>
<ellipse cx="20.7117" cy="301.259" rx="1.32885" ry="1.32836" fill="#FFA62B"/>
<ellipse cx="1.32885" cy="301.259" rx="1.32885" ry="1.32836" fill="#FFA62B"/>
<ellipse cx="40.2019" cy="301.259" rx="1.32885" ry="1.32836" fill="#FFA62B"/>
<ellipse cx="59.6902" cy="301.259" rx="1.32885" ry="1.32836" fill="#FFA62B"/>
<ellipse cx="79.1824" cy="301.259" rx="1.32885" ry="1.32836" fill="#FFA62B"/>
<ellipse cx="98.6706" cy="301.259" rx="1.32885" ry="1.32836" fill="#FFA62B"/>
<ellipse cx="20.7117" cy="320.741" rx="1.32885" ry="1.32836" fill="#FFA62B"/>
<ellipse cx="1.32885" cy="320.741" rx="1.32885" ry="1.32836" fill="#FFA62B"/>
<ellipse cx="40.2019" cy="320.741" rx="1.32885" ry="1.32836" fill="#FFA62B"/>
<ellipse cx="59.6902" cy="320.741" rx="1.32885" ry="1.32836" fill="#FFA62B"/>
<ellipse cx="79.1824" cy="320.741" rx="1.32885" ry="1.32836" fill="#FFA62B"/>
<ellipse cx="98.6706" cy="320.741" rx="1.32885" ry="1.32836" fill="#FFA62B"/>
<ellipse cx="20.7117" cy="340.224" rx="1.32885" ry="1.32836" fill="#FFA62B"/>
<ellipse cx="1.32885" cy="340.224" rx="1.32885" ry="1.32836" fill="#FFA62B"/>
<ellipse cx="40.2019" cy="340.224" rx="1.32885" ry="1.32836" fill="#FFA62B"/>
<ellipse cx="59.6902" cy="340.224" rx="1.32885" ry="1.32836" fill="#FFA62B"/>
<ellipse cx="79.1824" cy="340.224" rx="1.32885" ry="1.32836" fill="#FFA62B"/>
<ellipse cx="98.6706" cy="340.224" rx="1.32885" ry="1.32836" fill="#FFA62B"/>
<ellipse cx="20.7117" cy="359.706" rx="1.32885" ry="1.32836" fill="#FFA62B"/>
<ellipse cx="1.32885" cy="359.706" rx="1.32885" ry="1.32836" fill="#FFA62B"/>
<ellipse cx="40.2019" cy="359.706" rx="1.32885" ry="1.32836" fill="#FFA62B"/>
<ellipse cx="59.6902" cy="359.706" rx="1.32885" ry="1.32836" fill="#FFA62B"/>
<ellipse cx="79.1824" cy="359.706" rx="1.32885" ry="1.32836" fill="#FFA62B"/>
<ellipse cx="98.6706" cy="359.706" rx="1.32885" ry="1.32836" fill="#FFA62B"/>
<ellipse cx="20.7117" cy="379.189" rx="1.32885" ry="1.32836" fill="#FFA62B"/>
<ellipse cx="1.32885" cy="379.189" rx="1.32885" ry="1.32836" fill="#FFA62B"/>
<ellipse cx="40.2019" cy="379.189" rx="1.32885" ry="1.32836" fill="#FFA62B"/>
<ellipse cx="59.6902" cy="379.189" rx="1.32885" ry="1.32836" fill="#FFA62B"/>
<ellipse cx="79.1824" cy="379.189" rx="1.32885" ry="1.32836" fill="#FFA62B"/>
<ellipse cx="98.6706" cy="379.189" rx="1.32885" ry="1.32836" fill="#FFA62B"/>
<ellipse cx="20.7117" cy="398.672" rx="1.32885" ry="1.32836" fill="#FFA62B"/>
<ellipse cx="1.32885" cy="398.672" rx="1.32885" ry="1.32836" fill="#FFA62B"/>
<ellipse cx="40.2019" cy="398.672" rx="1.32885" ry="1.32836" fill="#FFA62B"/>
<ellipse cx="59.6902" cy="398.672" rx="1.32885" ry="1.32836" fill="#FFA62B"/>
<ellipse cx="79.1824" cy="398.672" rx="1.32885" ry="1.32836" fill="#FFA62B"/>
<ellipse cx="98.6706" cy="398.672" rx="1.32885" ry="1.32836" fill="#FFA62B"/>
</svg>
