<svg width="280" height="180" viewBox="0 0 280 180" fill="none" xmlns="http://www.w3.org/2000/svg">
<rect width="280" height="180" rx="20" fill="white"/>
<g filter="url(#filter0_d)">
<path d="M25 109.256C25 109.256 34.1623 121.142 46.1006 121.142C58.039 121.142 70.2562 96.3332 87.6597 96.3332C105.063 96.3332 109.455 105.164 124.866 105.164C140.277 105.164 148.777 58.7471 171.526 58.7471C194.275 58.7471 200.207 74.8744 220.649 74.8744C241.091 74.8744 255 89.9446 255 89.9446" stroke="#FF575F" stroke-width="2" stroke-linecap="round" stroke-linejoin="round"/>
</g>
<g filter="url(#filter1_d)">
<path d="M255 70.6333C255 70.6333 245.838 58.7475 233.899 58.7475C221.961 58.7475 209.744 83.5565 192.34 83.5565C174.937 83.5565 170.545 74.7262 155.134 74.7262C139.723 74.7262 131.223 121.143 108.474 121.143C85.7248 121.143 79.7933 105.015 59.351 105.015C38.9088 105.015 25 89.945 25 89.945" stroke="#FFC542" stroke-width="2" stroke-linecap="round" stroke-linejoin="round"/>
</g>
<g filter="url(#filter2_d)">
<path fill-rule="evenodd" clip-rule="evenodd" d="M173.244 62.5985C175.375 62.5985 177.103 60.8741 177.103 58.747C177.103 56.6199 175.375 54.8955 173.244 54.8955C171.113 54.8955 169.385 56.6199 169.385 58.747C169.385 60.8741 171.113 62.5985 173.244 62.5985Z" fill="white"/>
<path d="M176.103 58.747C176.103 60.32 174.825 61.5985 173.244 61.5985C171.663 61.5985 170.385 60.32 170.385 58.747C170.385 57.174 171.663 55.8955 173.244 55.8955C174.825 55.8955 176.103 57.174 176.103 58.747Z" stroke="#FF575F" stroke-width="2"/>
</g>
<g filter="url(#filter3_d)">
<path fill-rule="evenodd" clip-rule="evenodd" d="M99.8649 124.223C101.996 124.223 103.724 122.499 103.724 120.372C103.724 118.244 101.996 116.52 99.8649 116.52C97.7336 116.52 96.0059 118.244 96.0059 120.372C96.0059 122.499 97.7336 124.223 99.8649 124.223Z" fill="white"/>
<path d="M102.724 120.372C102.724 121.945 101.446 123.223 99.8649 123.223C98.2841 123.223 97.0059 121.945 97.0059 120.372C97.0059 118.799 98.2841 117.52 99.8649 117.52C101.446 117.52 102.724 118.799 102.724 120.372Z" stroke="#FFC542" stroke-width="2"/>
</g>
<path d="M28.4716 28.3636H26.0114V40H28.4716V28.3636ZM32.8707 34.9545C32.8764 33.8295 33.5469 33.1705 34.5241 33.1705C35.4957 33.1705 36.081 33.8068 36.0753 34.875V40H38.4957V34.4432C38.4957 32.4091 37.3026 31.1591 35.4844 31.1591C34.1889 31.1591 33.2514 31.7955 32.8594 32.8125H32.7571V31.2727H30.4503V40H32.8707V34.9545ZM44.3466 40.1705C46.6705 40.1705 48.1307 38.8068 48.2443 36.8011H45.9602C45.8182 37.733 45.2045 38.2557 44.375 38.2557C43.2443 38.2557 42.5114 37.3068 42.5114 35.6364C42.5114 33.9886 43.25 33.0455 44.375 33.0455C45.2614 33.0455 45.8295 33.6307 45.9602 34.5H48.2443C48.142 32.483 46.6136 31.1591 44.3352 31.1591C41.6875 31.1591 40.0511 32.9943 40.0511 35.6705C40.0511 38.3239 41.6591 40.1705 44.3466 40.1705ZM53.7372 40.1705C56.3849 40.1705 58.0327 38.358 58.0327 35.6705C58.0327 32.9659 56.3849 31.1591 53.7372 31.1591C51.0895 31.1591 49.4418 32.9659 49.4418 35.6705C49.4418 38.358 51.0895 40.1705 53.7372 40.1705ZM53.7486 38.2955C52.527 38.2955 51.902 37.1761 51.902 35.6534C51.902 34.1307 52.527 33.0057 53.7486 33.0057C54.9474 33.0057 55.5724 34.1307 55.5724 35.6534C55.5724 37.1761 54.9474 38.2955 53.7486 38.2955ZM59.6065 40H62.027V34.7614C62.027 33.7955 62.6406 33.1534 63.4474 33.1534C64.2429 33.1534 64.777 33.6989 64.777 34.5568V40H67.1236V34.6705C67.1236 33.767 67.6406 33.1534 68.5213 33.1534C69.294 33.1534 69.8736 33.6364 69.8736 34.608V40H72.2884V34.1307C72.2884 32.2386 71.1634 31.1591 69.5384 31.1591C68.2599 31.1591 67.2656 31.8125 66.9077 32.8125H66.8168C66.5384 31.8011 65.6463 31.1591 64.4474 31.1591C63.2713 31.1591 62.3793 31.7841 62.0156 32.8125H61.9134V31.2727H59.6065V40ZM78.1776 40.1705C80.3366 40.1705 81.7912 39.1193 82.1321 37.5L79.8935 37.3523C79.6491 38.017 79.0241 38.3636 78.2173 38.3636C77.0071 38.3636 76.2401 37.5625 76.2401 36.2614V36.2557H82.1832V35.5909C82.1832 32.625 80.3878 31.1591 78.081 31.1591C75.5128 31.1591 73.848 32.983 73.848 35.6761C73.848 38.4432 75.4901 40.1705 78.1776 40.1705ZM76.2401 34.7557C76.2912 33.7614 77.0469 32.9659 78.1207 32.9659C79.1719 32.9659 79.8991 33.7159 79.9048 34.7557H76.2401Z" fill="#041142"/>
<path d="M154.589 39.1392C156.876 39.1392 158.511 37.8814 158.506 36.1413C158.511 34.8736 157.706 33.9688 156.21 33.7798V33.7003C157.348 33.4964 158.134 32.6911 158.129 31.5476C158.134 29.9418 156.727 28.679 154.619 28.679C152.531 28.679 150.96 29.902 150.93 31.6619H152.993C153.018 30.8864 153.729 30.3842 154.609 30.3842C155.479 30.3842 156.06 30.9112 156.055 31.6768C156.06 32.4773 155.379 33.0192 154.4 33.0192H153.45V34.6001H154.4C155.553 34.6001 156.274 35.1768 156.269 35.9972C156.274 36.8075 155.578 37.3643 154.594 37.3643C153.644 37.3643 152.933 36.8672 152.893 36.1214H150.726C150.761 37.9013 152.352 39.1392 154.589 39.1392ZM163.773 39.1392C166.04 39.1392 167.581 37.6626 167.576 35.6044C167.581 33.6555 166.219 32.2536 164.384 32.2536C163.489 32.2536 162.719 32.6264 162.361 33.1286H162.301L162.564 30.5781H167.014V28.8182H160.79L160.307 34.1875L162.221 34.5305C162.535 34.108 163.141 33.8445 163.743 33.8445C164.767 33.8494 165.503 34.5902 165.503 35.6591C165.503 36.718 164.782 37.4489 163.773 37.4489C162.917 37.4489 162.226 36.9119 162.177 36.1214H160.089C160.128 37.8814 161.665 39.1392 163.773 39.1392ZM173.069 39.2237C175.63 39.2237 177.176 37.2749 177.181 33.919C177.186 30.5881 175.62 28.679 173.069 28.679C170.514 28.679 168.963 30.5831 168.958 33.919C168.948 37.2649 170.504 39.2188 173.069 39.2237ZM173.069 37.4389C171.901 37.4389 171.145 36.2656 171.15 33.919C171.155 31.6072 171.906 30.4439 173.069 30.4439C174.228 30.4439 174.983 31.6072 174.983 33.919C174.988 36.2656 174.233 37.4389 173.069 37.4389ZM182.708 39.2237C185.268 39.2237 186.815 37.2749 186.82 33.919C186.825 30.5881 185.259 28.679 182.708 28.679C180.153 28.679 178.602 30.5831 178.597 33.919C178.587 37.2649 180.143 39.2188 182.708 39.2237ZM182.708 37.4389C181.54 37.4389 180.784 36.2656 180.789 33.919C180.794 31.6072 181.545 30.4439 182.708 30.4439C183.866 30.4439 184.622 31.6072 184.622 33.919C184.627 36.2656 183.871 37.4389 182.708 37.4389ZM191.551 40.2727H192.725L192.735 39.1243C194.887 38.9602 196.135 37.8168 196.14 36.0916C196.135 34.3963 194.857 33.4964 193.088 33.0987L192.794 33.0291L192.814 30.5433C193.475 30.6974 193.878 31.12 193.938 31.7464H196.001C195.976 30.1009 194.748 28.9226 192.834 28.7138L192.844 27.5455H191.671L191.661 28.7038C189.717 28.8928 188.345 30.0661 188.355 31.7614C188.35 33.2628 189.409 34.1229 191.129 34.5355L191.606 34.6548L191.581 37.2848C190.771 37.1307 190.224 36.6335 190.169 35.8033H188.086C188.136 37.8118 189.453 38.9354 191.561 39.1193L191.551 40.2727ZM192.754 37.2848L192.774 34.9631C193.545 35.2067 193.963 35.5199 193.968 36.0866C193.963 36.6882 193.505 37.1357 192.754 37.2848ZM191.621 32.7259C190.999 32.5121 190.552 32.1889 190.562 31.6172C190.562 31.0852 190.94 30.6726 191.641 30.5284L191.621 32.7259Z" fill="#949FCA"/>
<path d="M82.228 145H84.4503L88.6761 136.603V134.818H81.532V136.578H86.4489V136.648L82.228 145ZM93.9249 145.224C96.4853 145.224 98.0314 143.275 98.0364 139.919C98.0414 136.588 96.4753 134.679 93.9249 134.679C91.3695 134.679 89.8184 136.583 89.8134 139.919C89.8034 143.265 91.3596 145.219 93.9249 145.224ZM93.9249 143.439C92.7566 143.439 92.0009 142.266 92.0059 139.919C92.0108 137.607 92.7615 136.444 93.9249 136.444C95.0833 136.444 95.839 137.607 95.839 139.919C95.8439 142.266 95.0882 143.439 93.9249 143.439ZM103.564 145.224C106.124 145.224 107.67 143.275 107.675 139.919C107.68 136.588 106.114 134.679 103.564 134.679C101.008 134.679 99.457 136.583 99.4521 139.919C99.4421 143.265 100.998 145.219 103.564 145.224ZM103.564 143.439C102.395 143.439 101.64 142.266 101.645 139.919C101.65 137.607 102.4 136.444 103.564 136.444C104.722 136.444 105.478 137.607 105.478 139.919C105.483 142.266 104.727 143.439 103.564 143.439ZM112.407 146.273H113.58L113.59 145.124C115.743 144.96 116.991 143.817 116.996 142.092C116.991 140.396 115.713 139.496 113.943 139.099L113.65 139.029L113.67 136.543C114.331 136.697 114.733 137.12 114.793 137.746H116.856C116.831 136.101 115.604 134.923 113.689 134.714L113.699 133.545H112.526L112.516 134.704C110.572 134.893 109.2 136.066 109.21 137.761C109.205 139.263 110.264 140.123 111.984 140.536L112.461 140.655L112.437 143.285C111.626 143.131 111.079 142.634 111.025 141.803H108.942C108.991 143.812 110.309 144.935 112.417 145.119L112.407 146.273ZM113.61 143.285L113.63 140.963C114.4 141.207 114.818 141.52 114.823 142.087C114.818 142.688 114.361 143.136 113.61 143.285ZM112.476 138.726C111.855 138.512 111.407 138.189 111.417 137.617C111.417 137.085 111.795 136.673 112.496 136.528L112.476 138.726Z" fill="#949FCA"/>
<path d="M184.011 151H191.875V148.972H186.472V146.193H191.449V144.165H186.472V141.392H191.852V139.364H184.011V151ZM195.786 142.273H193.286L195.786 146.636L193.195 151H195.695L197.388 147.983L199.109 151H201.581L198.984 146.636L201.513 142.273H199.03L197.388 145.324L195.786 142.273ZM202.95 154.273H205.371V149.602H205.445C205.78 150.33 206.513 151.142 207.922 151.142C209.911 151.142 211.462 149.568 211.462 146.648C211.462 143.648 209.842 142.159 207.928 142.159C206.467 142.159 205.768 143.028 205.445 143.739H205.337V142.273H202.95V154.273ZM205.32 146.636C205.32 145.08 205.979 144.085 207.155 144.085C208.354 144.085 208.99 145.125 208.99 146.636C208.99 148.159 208.342 149.216 207.155 149.216C205.99 149.216 205.32 148.193 205.32 146.636ZM217.053 151.17C219.212 151.17 220.666 150.119 221.007 148.5L218.768 148.352C218.524 149.017 217.899 149.364 217.092 149.364C215.882 149.364 215.115 148.562 215.115 147.261V147.256H221.058V146.591C221.058 143.625 219.263 142.159 216.956 142.159C214.388 142.159 212.723 143.983 212.723 146.676C212.723 149.443 214.365 151.17 217.053 151.17ZM215.115 145.756C215.166 144.761 215.922 143.966 216.996 143.966C218.047 143.966 218.774 144.716 218.78 145.756H215.115ZM225.058 145.955C225.064 144.83 225.734 144.17 226.712 144.17C227.683 144.17 228.268 144.807 228.263 145.875V151H230.683V145.443C230.683 143.409 229.49 142.159 227.672 142.159C226.376 142.159 225.439 142.795 225.047 143.812H224.945V142.273H222.638V151H225.058V145.955ZM239.852 144.761C239.636 143.153 238.341 142.159 236.136 142.159C233.903 142.159 232.432 143.193 232.438 144.875C232.432 146.182 233.256 147.028 234.96 147.369L236.472 147.67C237.233 147.824 237.58 148.102 237.591 148.54C237.58 149.057 237.017 149.426 236.17 149.426C235.307 149.426 234.733 149.057 234.585 148.347L232.205 148.472C232.432 150.142 233.852 151.17 236.165 151.17C238.426 151.17 240.045 150.017 240.051 148.295C240.045 147.034 239.222 146.278 237.528 145.932L235.949 145.614C235.136 145.438 234.835 145.159 234.841 144.739C234.835 144.216 235.426 143.875 236.176 143.875C237.017 143.875 237.517 144.335 237.636 144.898L239.852 144.761ZM245.553 151.17C247.712 151.17 249.166 150.119 249.507 148.5L247.268 148.352C247.024 149.017 246.399 149.364 245.592 149.364C244.382 149.364 243.615 148.562 243.615 147.261V147.256H249.558V146.591C249.558 143.625 247.763 142.159 245.456 142.159C242.888 142.159 241.223 143.983 241.223 146.676C241.223 149.443 242.865 151.17 245.553 151.17ZM243.615 145.756C243.666 144.761 244.422 143.966 245.496 143.966C246.547 143.966 247.274 144.716 247.28 145.756H243.615ZM258.399 144.761C258.183 143.153 256.888 142.159 254.683 142.159C252.45 142.159 250.979 143.193 250.984 144.875C250.979 146.182 251.803 147.028 253.507 147.369L255.018 147.67C255.78 147.824 256.126 148.102 256.138 148.54C256.126 149.057 255.564 149.426 254.717 149.426C253.854 149.426 253.28 149.057 253.132 148.347L250.751 148.472C250.979 150.142 252.399 151.17 254.712 151.17C256.973 151.17 258.592 150.017 258.598 148.295C258.592 147.034 257.768 146.278 256.075 145.932L254.496 145.614C253.683 145.438 253.382 145.159 253.388 144.739C253.382 144.216 253.973 143.875 254.723 143.875C255.564 143.875 256.064 144.335 256.183 144.898L258.399 144.761Z" fill="#9FA4B8"/>
<defs>
<filter id="filter0_d" x="20" y="53.7471" width="240" height="72.3951" filterUnits="userSpaceOnUse" color-interpolation-filters="sRGB">
<feFlood flood-opacity="0" result="BackgroundImageFix"/>
<feColorMatrix in="SourceAlpha" type="matrix" values="0 0 0 0 0 0 0 0 0 0 0 0 0 0 0 0 0 0 127 0"/>
<feOffset/>
<feGaussianBlur stdDeviation="2"/>
<feColorMatrix type="matrix" values="0 0 0 0 1 0 0 0 0 0.341176 0 0 0 0 0.372549 0 0 0 1 0"/>
<feBlend mode="normal" in2="BackgroundImageFix" result="effect1_dropShadow"/>
<feBlend mode="normal" in="SourceGraphic" in2="effect1_dropShadow" result="shape"/>
</filter>
<filter id="filter1_d" x="20" y="53.7476" width="240" height="72.3951" filterUnits="userSpaceOnUse" color-interpolation-filters="sRGB">
<feFlood flood-opacity="0" result="BackgroundImageFix"/>
<feColorMatrix in="SourceAlpha" type="matrix" values="0 0 0 0 0 0 0 0 0 0 0 0 0 0 0 0 0 0 127 0"/>
<feOffset/>
<feGaussianBlur stdDeviation="2"/>
<feColorMatrix type="matrix" values="0 0 0 0 1 0 0 0 0 0.772549 0 0 0 0 0.258824 0 0 0 1 0"/>
<feBlend mode="normal" in2="BackgroundImageFix" result="effect1_dropShadow"/>
<feBlend mode="normal" in="SourceGraphic" in2="effect1_dropShadow" result="shape"/>
</filter>
<filter id="filter2_d" x="165.385" y="50.8955" width="15.7181" height="15.703" filterUnits="userSpaceOnUse" color-interpolation-filters="sRGB">
<feFlood flood-opacity="0" result="BackgroundImageFix"/>
<feColorMatrix in="SourceAlpha" type="matrix" values="0 0 0 0 0 0 0 0 0 0 0 0 0 0 0 0 0 0 127 0"/>
<feOffset/>
<feGaussianBlur stdDeviation="2"/>
<feColorMatrix type="matrix" values="0 0 0 0 1 0 0 0 0 0.341176 0 0 0 0 0.372549 0 0 0 1 0"/>
<feBlend mode="normal" in2="BackgroundImageFix" result="effect1_dropShadow"/>
<feBlend mode="normal" in="SourceGraphic" in2="effect1_dropShadow" result="shape"/>
</filter>
<filter id="filter3_d" x="92.0059" y="112.52" width="15.7181" height="15.7031" filterUnits="userSpaceOnUse" color-interpolation-filters="sRGB">
<feFlood flood-opacity="0" result="BackgroundImageFix"/>
<feColorMatrix in="SourceAlpha" type="matrix" values="0 0 0 0 0 0 0 0 0 0 0 0 0 0 0 0 0 0 127 0"/>
<feOffset/>
<feGaussianBlur stdDeviation="2"/>
<feColorMatrix type="matrix" values="0 0 0 0 1 0 0 0 0 0.341176 0 0 0 0 0.372549 0 0 0 1 0"/>
<feBlend mode="normal" in2="BackgroundImageFix" result="effect1_dropShadow"/>
<feBlend mode="normal" in="SourceGraphic" in2="effect1_dropShadow" result="shape"/>
</filter>
</defs>
</svg>
