<svg width="15" height="15" viewBox="0 0 15 15" fill="none" xmlns="http://www.w3.org/2000/svg">
<path d="M14.5041 3.34641C14.4431 2.93806 14.2377 2.56512 13.9253 2.29518C13.6129 2.02524 13.2141 1.87617 12.8012 1.875H2.19711C1.78423 1.87617 1.38543 2.02524 1.07301 2.29518C0.760584 2.56512 0.55522 2.93806 0.494141 3.34641L7.49914 7.87922L14.5041 3.34641Z" fill="#FFA62B"/>
<path d="M7.75453 8.83145C7.6787 8.88048 7.59031 8.90657 7.5 8.90657C7.40969 8.90657 7.3213 8.88048 7.24547 8.83145L0.46875 4.44676V11.396C0.469246 11.8544 0.651591 12.294 0.975775 12.6182C1.29996 12.9424 1.7395 13.1247 2.19797 13.1252H12.802C13.2605 13.1247 13.7 12.9424 14.0242 12.6182C14.3484 12.294 14.5308 11.8544 14.5312 11.396V4.44629L7.75453 8.83145Z" fill="#FFA62B"/>
</svg>
