<svg width="45" height="45" viewBox="0 0 45 45" fill="none" xmlns="http://www.w3.org/2000/svg">
<g clip-path="url(#clip0)">
<path d="M27.2542 6.0416H36.3544L35.3174 1.8174C35.0033 0.537893 33.7114 -0.244773 32.4319 0.0693477L26.2949 1.57579L27.2542 6.0416Z" fill="#FFA62B"/>
<path d="M20.1205 3.09131L3.3116 7.21751C2.03209 7.53163 1.24942 8.82353 1.56345 10.103L7.71404 35.1587V8.19063C7.71404 7.00358 8.67627 6.04136 9.86332 6.04136H19.4867L20.1205 3.09131Z" fill="#FFA62B"/>
<path d="M9.86201 41.0266C9.60159 41.0266 9.35207 40.9803 9.12109 40.8955L9.68236 43.1821C9.99648 44.4616 11.2884 45.2442 12.5679 44.9301L28.4694 41.0266H9.86201Z" fill="#FFA62B"/>
<path d="M43.436 34.8964L39.0254 16.9287V38.4355L41.6879 37.7819C42.9674 37.4679 43.7501 36.176 43.436 34.8964Z" fill="#FFA62B"/>
<path d="M36.8788 5.16252H27.9655L27.2455 1.81055H28.3188C28.8041 1.81055 29.1977 1.41697 29.1977 0.931641C29.1977 0.446309 28.8041 0.0527344 28.3188 0.0527344H18.4241C17.9386 0.0527344 17.5451 0.446309 17.5451 0.931641C17.5451 1.41706 17.9386 1.81055 18.4241 1.81055H19.4974L18.7773 5.16252H9.86412C8.19437 5.16252 6.83594 6.52096 6.83594 8.1907V38.8777C6.83594 40.5475 8.19437 41.9059 9.86412 41.9059H36.8788C38.5485 41.9059 39.907 40.5475 39.907 38.8777V8.1907C39.907 6.52096 38.5485 5.16252 36.8788 5.16252ZM28.319 9.99519V12.3536H18.4238V9.99519H28.319ZM25.4475 1.81055L26.8282 8.23729H19.9147L21.2953 1.81055H25.4475ZM38.1492 38.8778C38.1492 39.5783 37.5793 40.1482 36.8788 40.1482H9.86412C9.16363 40.1482 8.59375 39.5783 8.59375 38.8778V8.1907C8.59375 7.49022 9.16363 6.92033 9.86412 6.92033H18.3997L18.1168 8.23729H17.5449C17.0595 8.23729 16.666 8.63086 16.666 9.11619V13.2325C16.666 13.7178 17.0595 14.1114 17.5449 14.1114H22.4925V18.4711C22.4925 18.9564 22.8861 19.35 23.3714 19.35C23.8567 19.35 24.2503 18.9564 24.2503 18.4711V14.1114H29.1979C29.6832 14.1114 30.0768 13.7178 30.0768 13.2325V9.11619C30.0768 8.63086 29.6832 8.23729 29.1979 8.23729H28.626L28.3431 6.92033H36.8787C37.5792 6.92033 38.1491 7.49022 38.1491 8.1907V38.8778H38.1492Z" fill="#0A1C46"/>
<path d="M33.082 21.6211H13.6602C13.1748 21.6211 12.7812 22.0146 12.7812 22.5C12.7812 22.9853 13.1748 23.3789 13.6602 23.3789H33.082C33.5673 23.3789 33.9609 22.9853 33.9609 22.5C33.9609 22.0146 33.5673 21.6211 33.082 21.6211Z" fill="#0A1C46"/>
<path d="M33.082 27.7871H13.6602C13.1748 27.7871 12.7812 28.1807 12.7812 28.666C12.7812 29.1513 13.1748 29.5449 13.6602 29.5449H33.082C33.5673 29.5449 33.9609 29.1513 33.9609 28.666C33.9609 28.1807 33.5673 27.7871 33.082 27.7871Z" fill="#0A1C46"/>
</g>
<defs>
<clipPath id="clip0">
<rect width="45" height="45" fill="white"/>
</clipPath>
</defs>
</svg>
