<svg width="671" height="617" viewBox="0 0 671 617" fill="none" xmlns="http://www.w3.org/2000/svg">
<ellipse cx="37.3243" cy="271.086" rx="2.3946" ry="2.60085" fill="#FFA62B"/>
<ellipse cx="2.3946" cy="271.086" rx="2.3946" ry="2.60085" fill="#FFA62B"/>
<ellipse cx="72.4454" cy="271.086" rx="2.3946" ry="2.60085" fill="#FFA62B"/>
<ellipse cx="107.563" cy="271.086" rx="2.3946" ry="2.60085" fill="#FFA62B"/>
<ellipse cx="142.684" cy="271.086" rx="2.3946" ry="2.60085" fill="#FFA62B"/>
<ellipse cx="177.807" cy="271.086" rx="2.3946" ry="2.60085" fill="#FFA62B"/>
<ellipse cx="37.3243" cy="309.232" rx="2.3946" ry="2.60085" fill="#FFA62B"/>
<ellipse cx="2.3946" cy="309.233" rx="2.3946" ry="2.60085" fill="#FFA62B"/>
<ellipse cx="72.4454" cy="309.232" rx="2.3946" ry="2.60085" fill="#FFA62B"/>
<ellipse cx="107.563" cy="309.232" rx="2.3946" ry="2.60085" fill="#FFA62B"/>
<ellipse cx="142.686" cy="309.232" rx="2.3946" ry="2.60085" fill="#FFA62B"/>
<ellipse cx="177.807" cy="309.232" rx="2.3946" ry="2.60085" fill="#FFA62B"/>
<ellipse cx="37.3243" cy="347.378" rx="2.3946" ry="2.60085" fill="#FFA62B"/>
<ellipse cx="2.3946" cy="347.378" rx="2.3946" ry="2.60085" fill="#FFA62B"/>
<ellipse cx="72.4454" cy="347.378" rx="2.3946" ry="2.60085" fill="#FFA62B"/>
<ellipse cx="107.563" cy="347.378" rx="2.3946" ry="2.60085" fill="#FFA62B"/>
<ellipse cx="142.686" cy="347.378" rx="2.3946" ry="2.60085" fill="#FFA62B"/>
<ellipse cx="177.807" cy="347.378" rx="2.3946" ry="2.60085" fill="#FFA62B"/>
<ellipse cx="37.3243" cy="385.524" rx="2.3946" ry="2.60085" fill="#FFA62B"/>
<ellipse cx="2.3946" cy="385.524" rx="2.3946" ry="2.60085" fill="#FFA62B"/>
<ellipse cx="72.4454" cy="385.523" rx="2.3946" ry="2.60085" fill="#FFA62B"/>
<ellipse cx="107.563" cy="385.523" rx="2.3946" ry="2.60085" fill="#FFA62B"/>
<ellipse cx="142.686" cy="385.523" rx="2.3946" ry="2.60085" fill="#FFA62B"/>
<ellipse cx="177.807" cy="385.523" rx="2.3946" ry="2.60085" fill="#FFA62B"/>
<ellipse cx="37.3243" cy="423.67" rx="2.3946" ry="2.60085" fill="#FFA62B"/>
<ellipse cx="2.3946" cy="423.67" rx="2.3946" ry="2.60085" fill="#FFA62B"/>
<ellipse cx="72.4454" cy="423.67" rx="2.3946" ry="2.60085" fill="#FFA62B"/>
<ellipse cx="107.563" cy="423.67" rx="2.3946" ry="2.60085" fill="#FFA62B"/>
<ellipse cx="142.686" cy="423.67" rx="2.3946" ry="2.60085" fill="#FFA62B"/>
<ellipse cx="177.807" cy="423.67" rx="2.3946" ry="2.60085" fill="#FFA62B"/>
<ellipse cx="37.3243" cy="461.816" rx="2.3946" ry="2.60085" fill="#FFA62B"/>
<ellipse cx="2.3946" cy="461.817" rx="2.3946" ry="2.60085" fill="#FFA62B"/>
<ellipse cx="72.4454" cy="461.816" rx="2.3946" ry="2.60085" fill="#FFA62B"/>
<ellipse cx="107.563" cy="461.816" rx="2.3946" ry="2.60085" fill="#FFA62B"/>
<ellipse cx="142.686" cy="461.816" rx="2.3946" ry="2.60085" fill="#FFA62B"/>
<ellipse cx="177.807" cy="461.816" rx="2.3946" ry="2.60085" fill="#FFA62B"/>
<ellipse cx="37.3243" cy="499.961" rx="2.3946" ry="2.60085" fill="#FFA62B"/>
<ellipse cx="2.3946" cy="499.961" rx="2.3946" ry="2.60085" fill="#FFA62B"/>
<ellipse cx="72.4454" cy="499.961" rx="2.3946" ry="2.60085" fill="#FFA62B"/>
<ellipse cx="107.563" cy="499.961" rx="2.3946" ry="2.60085" fill="#FFA62B"/>
<ellipse cx="142.686" cy="499.961" rx="2.3946" ry="2.60085" fill="#FFA62B"/>
<ellipse cx="177.807" cy="499.961" rx="2.3946" ry="2.60085" fill="#FFA62B"/>
<ellipse cx="37.3243" cy="538.107" rx="2.3946" ry="2.60085" fill="#FFA62B"/>
<ellipse cx="2.3946" cy="538.107" rx="2.3946" ry="2.60085" fill="#FFA62B"/>
<ellipse cx="72.4454" cy="538.107" rx="2.3946" ry="2.60085" fill="#FFA62B"/>
<ellipse cx="107.563" cy="538.107" rx="2.3946" ry="2.60085" fill="#FFA62B"/>
<ellipse cx="142.686" cy="538.107" rx="2.3946" ry="2.60085" fill="#FFA62B"/>
<ellipse cx="177.807" cy="538.107" rx="2.3946" ry="2.60085" fill="#FFA62B"/>
<ellipse cx="37.3243" cy="576.253" rx="2.3946" ry="2.60085" fill="#FFA62B"/>
<ellipse cx="2.3946" cy="576.254" rx="2.3946" ry="2.60085" fill="#FFA62B"/>
<ellipse cx="72.4454" cy="576.253" rx="2.3946" ry="2.60085" fill="#FFA62B"/>
<ellipse cx="107.563" cy="576.253" rx="2.3946" ry="2.60085" fill="#FFA62B"/>
<ellipse cx="142.686" cy="576.253" rx="2.3946" ry="2.60085" fill="#FFA62B"/>
<ellipse cx="177.807" cy="576.253" rx="2.3946" ry="2.60085" fill="#FFA62B"/>
<ellipse cx="37.3243" cy="614.399" rx="2.3946" ry="2.60085" fill="#FFA62B"/>
<ellipse cx="2.3946" cy="614.399" rx="2.3946" ry="2.60085" fill="#FFA62B"/>
<ellipse cx="72.4454" cy="614.399" rx="2.3946" ry="2.60085" fill="#FFA62B"/>
<ellipse cx="107.563" cy="614.399" rx="2.3946" ry="2.60085" fill="#FFA62B"/>
<ellipse cx="142.686" cy="614.399" rx="2.3946" ry="2.60085" fill="#FFA62B"/>
<ellipse cx="177.807" cy="614.399" rx="2.3946" ry="2.60085" fill="#FFA62B"/>
<ellipse cx="350.895" cy="154.881" rx="2.59578" ry="2.39929" transform="rotate(-90 350.895 154.881)" fill="#1258FF"/>
<ellipse cx="350.895" cy="192.744" rx="2.59578" ry="2.39929" transform="rotate(-90 350.895 192.744)" fill="#1258FF"/>
<ellipse cx="350.895" cy="116.811" rx="2.59578" ry="2.39929" transform="rotate(-90 350.895 116.811)" fill="#1258FF"/>
<ellipse cx="350.895" cy="78.7397" rx="2.59578" ry="2.39929" transform="rotate(-90 350.895 78.7397)" fill="#1258FF"/>
<ellipse cx="350.895" cy="40.6674" rx="2.59578" ry="2.39929" transform="rotate(-90 350.895 40.6674)" fill="#1258FF"/>
<ellipse cx="350.895" cy="2.59661" rx="2.59578" ry="2.39929" transform="rotate(-90 350.895 2.59661)" fill="#1258FF"/>
<ellipse cx="386.085" cy="154.882" rx="2.59578" ry="2.39929" transform="rotate(-90 386.085 154.882)" fill="#1258FF"/>
<ellipse cx="386.085" cy="192.745" rx="2.59578" ry="2.39929" transform="rotate(-90 386.085 192.745)" fill="#1258FF"/>
<ellipse cx="386.085" cy="116.811" rx="2.59578" ry="2.39929" transform="rotate(-90 386.085 116.811)" fill="#1258FF"/>
<ellipse cx="386.085" cy="78.7402" rx="2.59578" ry="2.39929" transform="rotate(-90 386.085 78.7402)" fill="#1258FF"/>
<ellipse cx="386.085" cy="40.6674" rx="2.59578" ry="2.39929" transform="rotate(-90 386.085 40.6674)" fill="#1258FF"/>
<ellipse cx="386.085" cy="2.59661" rx="2.59578" ry="2.39929" transform="rotate(-90 386.085 2.59661)" fill="#1258FF"/>
<ellipse cx="421.272" cy="154.882" rx="2.59578" ry="2.39929" transform="rotate(-90 421.272 154.882)" fill="#1258FF"/>
<ellipse cx="421.272" cy="192.745" rx="2.59578" ry="2.39929" transform="rotate(-90 421.272 192.745)" fill="#1258FF"/>
<ellipse cx="421.272" cy="116.811" rx="2.59578" ry="2.39929" transform="rotate(-90 421.272 116.811)" fill="#1258FF"/>
<ellipse cx="421.272" cy="78.7402" rx="2.59578" ry="2.39929" transform="rotate(-90 421.272 78.7402)" fill="#1258FF"/>
<ellipse cx="421.272" cy="40.6674" rx="2.59578" ry="2.39929" transform="rotate(-90 421.272 40.6674)" fill="#1258FF"/>
<ellipse cx="421.272" cy="2.59661" rx="2.59578" ry="2.39929" transform="rotate(-90 421.272 2.59661)" fill="#1258FF"/>
<ellipse cx="456.462" cy="154.882" rx="2.59578" ry="2.39929" transform="rotate(-90 456.462 154.882)" fill="#1258FF"/>
<ellipse cx="456.462" cy="192.745" rx="2.59578" ry="2.39929" transform="rotate(-90 456.462 192.745)" fill="#1258FF"/>
<ellipse cx="456.462" cy="116.811" rx="2.59578" ry="2.39929" transform="rotate(-90 456.462 116.811)" fill="#1258FF"/>
<ellipse cx="456.462" cy="78.7402" rx="2.59578" ry="2.39929" transform="rotate(-90 456.462 78.7402)" fill="#1258FF"/>
<ellipse cx="456.462" cy="40.6674" rx="2.59578" ry="2.39929" transform="rotate(-90 456.462 40.6674)" fill="#1258FF"/>
<ellipse cx="456.462" cy="2.59661" rx="2.59578" ry="2.39929" transform="rotate(-90 456.462 2.59661)" fill="#1258FF"/>
<ellipse cx="491.653" cy="154.882" rx="2.59578" ry="2.39929" transform="rotate(-90 491.653 154.882)" fill="#1258FF"/>
<ellipse cx="491.653" cy="192.745" rx="2.59578" ry="2.39929" transform="rotate(-90 491.653 192.745)" fill="#1258FF"/>
<ellipse cx="491.651" cy="116.811" rx="2.59578" ry="2.39929" transform="rotate(-90 491.651 116.811)" fill="#1258FF"/>
<ellipse cx="491.651" cy="78.7402" rx="2.59578" ry="2.39929" transform="rotate(-90 491.651 78.7402)" fill="#1258FF"/>
<ellipse cx="491.651" cy="40.6674" rx="2.59578" ry="2.39929" transform="rotate(-90 491.651 40.6674)" fill="#1258FF"/>
<ellipse cx="491.651" cy="2.59661" rx="2.59578" ry="2.39929" transform="rotate(-90 491.651 2.59661)" fill="#1258FF"/>
<ellipse cx="526.841" cy="154.882" rx="2.59578" ry="2.39929" transform="rotate(-90 526.841 154.882)" fill="#1258FF"/>
<ellipse cx="526.841" cy="192.745" rx="2.59578" ry="2.39929" transform="rotate(-90 526.841 192.745)" fill="#1258FF"/>
<ellipse cx="526.843" cy="116.811" rx="2.59578" ry="2.39929" transform="rotate(-90 526.843 116.811)" fill="#1258FF"/>
<ellipse cx="526.843" cy="78.7402" rx="2.59578" ry="2.39929" transform="rotate(-90 526.843 78.7402)" fill="#1258FF"/>
<ellipse cx="526.843" cy="40.6674" rx="2.59578" ry="2.39929" transform="rotate(-90 526.843 40.6674)" fill="#1258FF"/>
<ellipse cx="526.843" cy="2.59661" rx="2.59578" ry="2.39929" transform="rotate(-90 526.843 2.59661)" fill="#1258FF"/>
<ellipse cx="562.032" cy="154.882" rx="2.59578" ry="2.39929" transform="rotate(-90 562.032 154.882)" fill="#1258FF"/>
<ellipse cx="562.032" cy="192.745" rx="2.59578" ry="2.39929" transform="rotate(-90 562.032 192.745)" fill="#1258FF"/>
<ellipse cx="562.032" cy="116.811" rx="2.59578" ry="2.39929" transform="rotate(-90 562.032 116.811)" fill="#1258FF"/>
<ellipse cx="562.032" cy="78.7402" rx="2.59578" ry="2.39929" transform="rotate(-90 562.032 78.7402)" fill="#1258FF"/>
<ellipse cx="562.032" cy="40.6674" rx="2.59578" ry="2.39929" transform="rotate(-90 562.032 40.6674)" fill="#1258FF"/>
<ellipse cx="562.032" cy="2.59661" rx="2.59578" ry="2.39929" transform="rotate(-90 562.032 2.59661)" fill="#1258FF"/>
<ellipse cx="597.224" cy="154.882" rx="2.59578" ry="2.39929" transform="rotate(-90 597.224 154.882)" fill="#1258FF"/>
<ellipse cx="597.224" cy="192.745" rx="2.59578" ry="2.39929" transform="rotate(-90 597.224 192.745)" fill="#1258FF"/>
<ellipse cx="597.224" cy="116.811" rx="2.59578" ry="2.39929" transform="rotate(-90 597.224 116.811)" fill="#1258FF"/>
<ellipse cx="597.224" cy="78.7402" rx="2.59578" ry="2.39929" transform="rotate(-90 597.224 78.7402)" fill="#1258FF"/>
<ellipse cx="597.224" cy="40.6674" rx="2.59578" ry="2.39929" transform="rotate(-90 597.224 40.6674)" fill="#1258FF"/>
<ellipse cx="597.224" cy="2.59661" rx="2.59578" ry="2.39929" transform="rotate(-90 597.224 2.59661)" fill="#1258FF"/>
<ellipse cx="632.411" cy="154.882" rx="2.59578" ry="2.39929" transform="rotate(-90 632.411 154.882)" fill="#1258FF"/>
<ellipse cx="632.411" cy="192.745" rx="2.59578" ry="2.39929" transform="rotate(-90 632.411 192.745)" fill="#1258FF"/>
<ellipse cx="632.413" cy="116.811" rx="2.59578" ry="2.39929" transform="rotate(-90 632.413 116.811)" fill="#1258FF"/>
<ellipse cx="632.413" cy="78.7402" rx="2.59578" ry="2.39929" transform="rotate(-90 632.413 78.7402)" fill="#1258FF"/>
<ellipse cx="632.413" cy="40.6674" rx="2.59578" ry="2.39929" transform="rotate(-90 632.413 40.6674)" fill="#1258FF"/>
<ellipse cx="632.413" cy="2.59661" rx="2.59578" ry="2.39929" transform="rotate(-90 632.413 2.59661)" fill="#1258FF"/>
<ellipse cx="667.602" cy="154.882" rx="2.59578" ry="2.39929" transform="rotate(-90 667.602 154.882)" fill="#1258FF"/>
<ellipse cx="667.602" cy="192.745" rx="2.59578" ry="2.39929" transform="rotate(-90 667.602 192.745)" fill="#1258FF"/>
<ellipse cx="667.602" cy="116.811" rx="2.59578" ry="2.39929" transform="rotate(-90 667.602 116.811)" fill="#1258FF"/>
<ellipse cx="667.602" cy="78.7402" rx="2.59578" ry="2.39929" transform="rotate(-90 667.602 78.7402)" fill="#1258FF"/>
<ellipse cx="667.602" cy="40.6674" rx="2.59578" ry="2.39929" transform="rotate(-90 667.602 40.6674)" fill="#1258FF"/>
<ellipse cx="667.602" cy="2.59661" rx="2.59578" ry="2.39929" transform="rotate(-90 667.602 2.59661)" fill="#1258FF"/>
</svg>
