<svg width="320" height="380" viewBox="0 0 320 380" fill="none" xmlns="http://www.w3.org/2000/svg">
<ellipse cx="143.328" cy="75.3235" rx="1.2624" ry="1.32836" transform="rotate(-90 143.328 75.3235)" fill="#1258FF"/>
<ellipse cx="143.328" cy="93.7371" rx="1.2624" ry="1.32836" transform="rotate(-90 143.328 93.7371)" fill="#1258FF"/>
<ellipse cx="143.328" cy="56.8089" rx="1.2624" ry="1.32836" transform="rotate(-90 143.328 56.8089)" fill="#1258FF"/>
<ellipse cx="143.328" cy="38.2928" rx="1.2624" ry="1.32836" transform="rotate(-90 143.328 38.2928)" fill="#1258FF"/>
<ellipse cx="143.328" cy="19.7781" rx="1.2624" ry="1.32836" transform="rotate(-90 143.328 19.7781)" fill="#1258FF"/>
<ellipse cx="143.328" cy="1.26251" rx="1.2624" ry="1.32836" transform="rotate(-90 143.328 1.26251)" fill="#1258FF"/>
<ellipse cx="162.811" cy="75.3235" rx="1.2624" ry="1.32836" transform="rotate(-90 162.811 75.3235)" fill="#1258FF"/>
<ellipse cx="162.811" cy="93.7376" rx="1.2624" ry="1.32836" transform="rotate(-90 162.811 93.7376)" fill="#1258FF"/>
<ellipse cx="162.811" cy="56.8089" rx="1.2624" ry="1.32836" transform="rotate(-90 162.811 56.8089)" fill="#1258FF"/>
<ellipse cx="162.811" cy="38.2928" rx="1.2624" ry="1.32836" transform="rotate(-90 162.811 38.2928)" fill="#1258FF"/>
<ellipse cx="162.811" cy="19.7781" rx="1.2624" ry="1.32836" transform="rotate(-90 162.811 19.7781)" fill="#1258FF"/>
<ellipse cx="162.811" cy="1.26251" rx="1.2624" ry="1.32836" transform="rotate(-90 162.811 1.26251)" fill="#1258FF"/>
<ellipse cx="182.293" cy="75.3235" rx="1.2624" ry="1.32836" transform="rotate(-90 182.293 75.3235)" fill="#1258FF"/>
<ellipse cx="182.293" cy="93.7376" rx="1.2624" ry="1.32836" transform="rotate(-90 182.293 93.7376)" fill="#1258FF"/>
<ellipse cx="182.293" cy="56.8089" rx="1.2624" ry="1.32836" transform="rotate(-90 182.293 56.8089)" fill="#1258FF"/>
<ellipse cx="182.293" cy="38.2928" rx="1.2624" ry="1.32836" transform="rotate(-90 182.293 38.2928)" fill="#1258FF"/>
<ellipse cx="182.293" cy="19.7781" rx="1.2624" ry="1.32836" transform="rotate(-90 182.293 19.7781)" fill="#1258FF"/>
<ellipse cx="182.293" cy="1.26251" rx="1.2624" ry="1.32836" transform="rotate(-90 182.293 1.26251)" fill="#1258FF"/>
<ellipse cx="201.776" cy="75.3235" rx="1.2624" ry="1.32836" transform="rotate(-90 201.776 75.3235)" fill="#1258FF"/>
<ellipse cx="201.776" cy="93.7376" rx="1.2624" ry="1.32836" transform="rotate(-90 201.776 93.7376)" fill="#1258FF"/>
<ellipse cx="201.776" cy="56.8089" rx="1.2624" ry="1.32836" transform="rotate(-90 201.776 56.8089)" fill="#1258FF"/>
<ellipse cx="201.776" cy="38.2928" rx="1.2624" ry="1.32836" transform="rotate(-90 201.776 38.2928)" fill="#1258FF"/>
<ellipse cx="201.776" cy="19.7781" rx="1.2624" ry="1.32836" transform="rotate(-90 201.776 19.7781)" fill="#1258FF"/>
<ellipse cx="201.776" cy="1.26251" rx="1.2624" ry="1.32836" transform="rotate(-90 201.776 1.26251)" fill="#1258FF"/>
<ellipse cx="221.26" cy="75.3235" rx="1.2624" ry="1.32836" transform="rotate(-90 221.26 75.3235)" fill="#1258FF"/>
<ellipse cx="221.26" cy="93.7376" rx="1.2624" ry="1.32836" transform="rotate(-90 221.26 93.7376)" fill="#1258FF"/>
<ellipse cx="221.258" cy="56.8089" rx="1.2624" ry="1.32836" transform="rotate(-90 221.258 56.8089)" fill="#1258FF"/>
<ellipse cx="221.258" cy="38.2928" rx="1.2624" ry="1.32836" transform="rotate(-90 221.258 38.2928)" fill="#1258FF"/>
<ellipse cx="221.258" cy="19.7781" rx="1.2624" ry="1.32836" transform="rotate(-90 221.258 19.7781)" fill="#1258FF"/>
<ellipse cx="221.258" cy="1.26251" rx="1.2624" ry="1.32836" transform="rotate(-90 221.258 1.26251)" fill="#1258FF"/>
<ellipse cx="240.74" cy="75.3235" rx="1.2624" ry="1.32836" transform="rotate(-90 240.74 75.3235)" fill="#1258FF"/>
<ellipse cx="240.74" cy="93.7376" rx="1.2624" ry="1.32836" transform="rotate(-90 240.74 93.7376)" fill="#1258FF"/>
<ellipse cx="240.742" cy="56.8089" rx="1.2624" ry="1.32836" transform="rotate(-90 240.742 56.8089)" fill="#1258FF"/>
<ellipse cx="240.742" cy="38.2928" rx="1.2624" ry="1.32836" transform="rotate(-90 240.742 38.2928)" fill="#1258FF"/>
<ellipse cx="240.742" cy="19.7781" rx="1.2624" ry="1.32836" transform="rotate(-90 240.742 19.7781)" fill="#1258FF"/>
<ellipse cx="240.742" cy="1.26251" rx="1.2624" ry="1.32836" transform="rotate(-90 240.742 1.26251)" fill="#1258FF"/>
<ellipse cx="260.223" cy="75.3235" rx="1.2624" ry="1.32836" transform="rotate(-90 260.223 75.3235)" fill="#1258FF"/>
<ellipse cx="260.223" cy="93.7376" rx="1.2624" ry="1.32836" transform="rotate(-90 260.223 93.7376)" fill="#1258FF"/>
<ellipse cx="260.223" cy="56.8089" rx="1.2624" ry="1.32836" transform="rotate(-90 260.223 56.8089)" fill="#1258FF"/>
<ellipse cx="260.223" cy="38.2928" rx="1.2624" ry="1.32836" transform="rotate(-90 260.223 38.2928)" fill="#1258FF"/>
<ellipse cx="260.223" cy="19.7781" rx="1.2624" ry="1.32836" transform="rotate(-90 260.223 19.7781)" fill="#1258FF"/>
<ellipse cx="260.223" cy="1.26251" rx="1.2624" ry="1.32836" transform="rotate(-90 260.223 1.26251)" fill="#1258FF"/>
<ellipse cx="279.705" cy="75.3235" rx="1.2624" ry="1.32836" transform="rotate(-90 279.705 75.3235)" fill="#1258FF"/>
<ellipse cx="279.705" cy="93.7376" rx="1.2624" ry="1.32836" transform="rotate(-90 279.705 93.7376)" fill="#1258FF"/>
<ellipse cx="279.705" cy="56.8089" rx="1.2624" ry="1.32836" transform="rotate(-90 279.705 56.8089)" fill="#1258FF"/>
<ellipse cx="279.705" cy="38.2928" rx="1.2624" ry="1.32836" transform="rotate(-90 279.705 38.2928)" fill="#1258FF"/>
<ellipse cx="279.705" cy="19.7781" rx="1.2624" ry="1.32836" transform="rotate(-90 279.705 19.7781)" fill="#1258FF"/>
<ellipse cx="279.705" cy="1.26251" rx="1.2624" ry="1.32836" transform="rotate(-90 279.705 1.26251)" fill="#1258FF"/>
<ellipse cx="299.188" cy="75.3235" rx="1.2624" ry="1.32836" transform="rotate(-90 299.188 75.3235)" fill="#1258FF"/>
<ellipse cx="299.188" cy="93.7376" rx="1.2624" ry="1.32836" transform="rotate(-90 299.188 93.7376)" fill="#1258FF"/>
<ellipse cx="299.19" cy="56.8089" rx="1.2624" ry="1.32836" transform="rotate(-90 299.19 56.8089)" fill="#1258FF"/>
<ellipse cx="299.19" cy="38.2928" rx="1.2624" ry="1.32836" transform="rotate(-90 299.19 38.2928)" fill="#1258FF"/>
<ellipse cx="299.19" cy="19.7781" rx="1.2624" ry="1.32836" transform="rotate(-90 299.19 19.7781)" fill="#1258FF"/>
<ellipse cx="299.19" cy="1.26251" rx="1.2624" ry="1.32836" transform="rotate(-90 299.19 1.26251)" fill="#1258FF"/>
<ellipse cx="318.672" cy="75.3235" rx="1.2624" ry="1.32836" transform="rotate(-90 318.672 75.3235)" fill="#1258FF"/>
<ellipse cx="318.672" cy="93.7376" rx="1.2624" ry="1.32836" transform="rotate(-90 318.672 93.7376)" fill="#1258FF"/>
<ellipse cx="318.672" cy="56.8089" rx="1.2624" ry="1.32836" transform="rotate(-90 318.672 56.8089)" fill="#1258FF"/>
<ellipse cx="318.672" cy="38.2928" rx="1.2624" ry="1.32836" transform="rotate(-90 318.672 38.2928)" fill="#1258FF"/>
<ellipse cx="318.672" cy="19.7781" rx="1.2624" ry="1.32836" transform="rotate(-90 318.672 19.7781)" fill="#1258FF"/>
<ellipse cx="318.672" cy="1.26251" rx="1.2624" ry="1.32836" transform="rotate(-90 318.672 1.26251)" fill="#1258FF"/>
<ellipse cx="20.7117" cy="212.162" rx="1.32885" ry="1.26194" fill="#FFA62B"/>
<ellipse cx="1.32885" cy="212.162" rx="1.32885" ry="1.26194" fill="#FFA62B"/>
<ellipse cx="40.2019" cy="212.162" rx="1.32885" ry="1.26194" fill="#FFA62B"/>
<ellipse cx="59.6902" cy="212.162" rx="1.32885" ry="1.26194" fill="#FFA62B"/>
<ellipse cx="79.1824" cy="212.162" rx="1.32885" ry="1.26194" fill="#FFA62B"/>
<ellipse cx="98.6706" cy="212.162" rx="1.32885" ry="1.26194" fill="#FFA62B"/>
<ellipse cx="20.7117" cy="230.67" rx="1.32885" ry="1.26194" fill="#FFA62B"/>
<ellipse cx="1.32885" cy="230.67" rx="1.32885" ry="1.26194" fill="#FFA62B"/>
<ellipse cx="40.2019" cy="230.67" rx="1.32885" ry="1.26194" fill="#FFA62B"/>
<ellipse cx="59.6902" cy="230.67" rx="1.32885" ry="1.26194" fill="#FFA62B"/>
<ellipse cx="79.1824" cy="230.67" rx="1.32885" ry="1.26194" fill="#FFA62B"/>
<ellipse cx="98.6706" cy="230.67" rx="1.32885" ry="1.26194" fill="#FFA62B"/>
<ellipse cx="20.7117" cy="249.179" rx="1.32885" ry="1.26194" fill="#FFA62B"/>
<ellipse cx="1.32885" cy="249.179" rx="1.32885" ry="1.26194" fill="#FFA62B"/>
<ellipse cx="40.2019" cy="249.179" rx="1.32885" ry="1.26194" fill="#FFA62B"/>
<ellipse cx="59.6902" cy="249.179" rx="1.32885" ry="1.26194" fill="#FFA62B"/>
<ellipse cx="79.1824" cy="249.179" rx="1.32885" ry="1.26194" fill="#FFA62B"/>
<ellipse cx="98.6706" cy="249.179" rx="1.32885" ry="1.26194" fill="#FFA62B"/>
<ellipse cx="20.7117" cy="267.687" rx="1.32885" ry="1.26194" fill="#FFA62B"/>
<ellipse cx="1.32885" cy="267.687" rx="1.32885" ry="1.26194" fill="#FFA62B"/>
<ellipse cx="40.2019" cy="267.687" rx="1.32885" ry="1.26194" fill="#FFA62B"/>
<ellipse cx="59.6902" cy="267.687" rx="1.32885" ry="1.26194" fill="#FFA62B"/>
<ellipse cx="79.1824" cy="267.687" rx="1.32885" ry="1.26194" fill="#FFA62B"/>
<ellipse cx="98.6706" cy="267.687" rx="1.32885" ry="1.26194" fill="#FFA62B"/>
<ellipse cx="20.7117" cy="286.196" rx="1.32885" ry="1.26194" fill="#FFA62B"/>
<ellipse cx="1.32885" cy="286.196" rx="1.32885" ry="1.26194" fill="#FFA62B"/>
<ellipse cx="40.2019" cy="286.196" rx="1.32885" ry="1.26194" fill="#FFA62B"/>
<ellipse cx="59.6902" cy="286.196" rx="1.32885" ry="1.26194" fill="#FFA62B"/>
<ellipse cx="79.1824" cy="286.196" rx="1.32885" ry="1.26194" fill="#FFA62B"/>
<ellipse cx="98.6706" cy="286.196" rx="1.32885" ry="1.26194" fill="#FFA62B"/>
<ellipse cx="20.7117" cy="304.704" rx="1.32885" ry="1.26194" fill="#FFA62B"/>
<ellipse cx="1.32885" cy="304.704" rx="1.32885" ry="1.26194" fill="#FFA62B"/>
<ellipse cx="40.2019" cy="304.704" rx="1.32885" ry="1.26194" fill="#FFA62B"/>
<ellipse cx="59.6902" cy="304.704" rx="1.32885" ry="1.26194" fill="#FFA62B"/>
<ellipse cx="79.1824" cy="304.704" rx="1.32885" ry="1.26194" fill="#FFA62B"/>
<ellipse cx="98.6706" cy="304.704" rx="1.32885" ry="1.26194" fill="#FFA62B"/>
<ellipse cx="20.7117" cy="323.213" rx="1.32885" ry="1.26194" fill="#FFA62B"/>
<ellipse cx="1.32885" cy="323.213" rx="1.32885" ry="1.26194" fill="#FFA62B"/>
<ellipse cx="40.2019" cy="323.213" rx="1.32885" ry="1.26194" fill="#FFA62B"/>
<ellipse cx="59.6902" cy="323.213" rx="1.32885" ry="1.26194" fill="#FFA62B"/>
<ellipse cx="79.1824" cy="323.213" rx="1.32885" ry="1.26194" fill="#FFA62B"/>
<ellipse cx="98.6706" cy="323.213" rx="1.32885" ry="1.26194" fill="#FFA62B"/>
<ellipse cx="20.7117" cy="341.721" rx="1.32885" ry="1.26194" fill="#FFA62B"/>
<ellipse cx="1.32885" cy="341.721" rx="1.32885" ry="1.26194" fill="#FFA62B"/>
<ellipse cx="40.2019" cy="341.721" rx="1.32885" ry="1.26194" fill="#FFA62B"/>
<ellipse cx="59.6902" cy="341.721" rx="1.32885" ry="1.26194" fill="#FFA62B"/>
<ellipse cx="79.1824" cy="341.721" rx="1.32885" ry="1.26194" fill="#FFA62B"/>
<ellipse cx="98.6706" cy="341.721" rx="1.32885" ry="1.26194" fill="#FFA62B"/>
<ellipse cx="20.7117" cy="360.229" rx="1.32885" ry="1.26194" fill="#FFA62B"/>
<ellipse cx="1.32885" cy="360.229" rx="1.32885" ry="1.26194" fill="#FFA62B"/>
<ellipse cx="40.2019" cy="360.229" rx="1.32885" ry="1.26194" fill="#FFA62B"/>
<ellipse cx="59.6902" cy="360.229" rx="1.32885" ry="1.26194" fill="#FFA62B"/>
<ellipse cx="79.1824" cy="360.229" rx="1.32885" ry="1.26194" fill="#FFA62B"/>
<ellipse cx="98.6706" cy="360.229" rx="1.32885" ry="1.26194" fill="#FFA62B"/>
<ellipse cx="20.7117" cy="378.738" rx="1.32885" ry="1.26194" fill="#FFA62B"/>
<ellipse cx="1.32885" cy="378.738" rx="1.32885" ry="1.26194" fill="#FFA62B"/>
<ellipse cx="40.2019" cy="378.738" rx="1.32885" ry="1.26194" fill="#FFA62B"/>
<ellipse cx="59.6902" cy="378.738" rx="1.32885" ry="1.26194" fill="#FFA62B"/>
<ellipse cx="79.1824" cy="378.738" rx="1.32885" ry="1.26194" fill="#FFA62B"/>
<ellipse cx="98.6706" cy="378.738" rx="1.32885" ry="1.26194" fill="#FFA62B"/>
</svg>
