<svg width="45" height="45" viewBox="0 0 45 45" fill="none" xmlns="http://www.w3.org/2000/svg">
<g clip-path="url(#clip0)">
<path d="M12.0251 20.6801C17.7656 20.6801 22.4193 16.0507 22.4193 10.3401C22.4193 4.62941 17.7656 0 12.0251 0C6.28451 0 1.63086 4.62941 1.63086 10.3401C1.63086 16.0507 6.28451 20.6801 12.0251 20.6801Z" fill="#FFA62B"/>
<path d="M15.5765 13.1655C15.7683 11.6484 14.7718 10.1914 13.1535 9.62238C13.0236 9.57668 12.8998 9.53273 12.7819 9.49055V6.90727C13.0748 7.00553 13.2785 7.15802 13.3812 7.30365C13.6611 7.70039 14.2093 7.79505 14.606 7.5152C15.0026 7.23536 15.0974 6.68701 14.8175 6.29036C14.422 5.72979 13.71 5.26046 12.7818 5.10103V4.96436C12.7818 4.47894 12.3883 4.08545 11.9029 4.08545C11.4176 4.08545 11.024 4.47894 11.024 4.96436V5.16606C10.9067 5.19278 10.7878 5.22407 10.6672 5.2602C9.59922 5.58029 8.79353 6.61301 8.70793 7.77167C8.62337 8.91609 9.23474 9.90978 10.3433 10.4298C10.4939 10.5005 10.7275 10.5974 11.0239 10.7128V13.8255C10.621 13.6983 10.2544 13.4927 10.0131 13.1948C9.70759 12.8176 9.15415 12.7593 8.77701 13.0648C8.39978 13.3702 8.3416 13.9237 8.64702 14.301C9.25592 15.053 10.1499 15.4596 11.0239 15.6364V15.7158C11.0239 16.2013 11.4175 16.5947 11.9028 16.5947C12.3883 16.5947 12.7817 16.2013 12.7817 15.7158V15.7027C14.6318 15.4553 15.4399 14.246 15.5765 13.1655ZM13.8325 12.9451C13.7708 13.4336 13.3943 13.7767 12.7819 13.9179V11.3658C13.5922 11.7364 13.8982 12.4252 13.8325 12.9451ZM10.4611 7.90131C10.4888 7.52637 10.7208 7.16821 11.0241 7.0057V8.80605C10.6216 8.59644 10.4322 8.29233 10.4611 7.90131Z" fill="#0A1C46"/>
<path d="M9.74482 29.356H2.92187C2.43654 29.356 2.04297 29.7494 2.04297 30.2349V44.1212C2.04297 44.6067 2.43654 45.0001 2.92187 45.0001H9.74482C10.2302 45.0001 10.6237 44.6067 10.6237 44.1212V30.2349C10.6237 29.7494 10.2302 29.356 9.74482 29.356ZM8.86592 43.2423H3.80078V31.1138H8.86592V43.2423Z" fill="#0A1C46"/>
<path d="M20.6609 23.1899H13.8379C13.3525 23.1899 12.959 23.5834 12.959 24.0688V44.1209C12.959 44.6063 13.3525 44.9998 13.8379 44.9998H20.6609C21.1463 44.9998 21.5398 44.6063 21.5398 44.1209V24.0688C21.5398 23.5834 21.1463 23.1899 20.6609 23.1899ZM19.782 43.242H14.7168V24.9478H19.782V43.242Z" fill="#0A1C46"/>
<path d="M31.5769 17.0244H24.7539C24.2686 17.0244 23.875 17.4179 23.875 17.9033V44.1212C23.875 44.6066 24.2686 45.0001 24.7539 45.0001H31.5769C32.0623 45.0001 32.4559 44.6066 32.4559 44.1212V17.9033C32.4559 17.4179 32.0624 17.0244 31.5769 17.0244ZM30.698 43.2423H25.6328V18.7822H30.698V43.2423Z" fill="#0A1C46"/>
<path d="M42.4929 10.8589H35.6699C35.1846 10.8589 34.791 11.2524 34.791 11.7378V44.1214C34.791 44.6069 35.1846 45.0004 35.6699 45.0004H42.4929C42.9782 45.0004 43.3718 44.6069 43.3718 44.1214V11.7378C43.3718 11.2524 42.9783 10.8589 42.4929 10.8589ZM41.614 43.2425H36.5488V12.6167H41.614V43.2425Z" fill="#0A1C46"/>
</g>
<defs>
<clipPath id="clip0">
<rect width="45" height="45" fill="white"/>
</clipPath>
</defs>
</svg>
