<svg width="204" height="160" viewBox="0 0 204 160" fill="none" xmlns="http://www.w3.org/2000/svg">
<rect width="204" height="160" rx="20" fill="white"/>
<path d="M26.1378 43H28.9055V39.2798L30.267 37.6179L33.853 43H37.1641L32.2486 35.7706L37.1065 29.9091H33.7891L29.0781 35.6811H28.9055V29.9091H26.1378V43ZM38.5479 43H41.3157V38.7557H43.6424C46.6531 38.7557 48.4045 36.9595 48.4045 34.3452C48.4045 31.7436 46.685 29.9091 43.7127 29.9091H38.5479V43ZM41.3157 36.5376V32.1719H43.1822C44.7802 32.1719 45.5536 33.0412 45.5536 34.3452C45.5536 35.6428 44.7802 36.5376 43.195 36.5376H41.3157ZM52.97 29.9091H50.2022V43H52.97V29.9091Z" fill="#041142"/>
<rect x="30" y="85.6958" width="8.73494" height="36.5217" rx="4.36747" fill="#3DD598"/>
<rect x="52.7109" y="103.957" width="8.73494" height="21.7391" rx="4.36747" fill="#FF575F"/>
<rect x="75.4219" y="57" width="8.73494" height="47.8261" rx="4.36747" fill="#3DD598"/>
<rect x="98.1328" y="73.522" width="8.73494" height="26.087" rx="4.36747" fill="#FF575F"/>
<rect x="120.844" y="77" width="8.73494" height="36.5217" rx="4.36747" fill="#3DD598"/>
<rect x="143.555" y="113.522" width="8.73494" height="17.3913" rx="4.36747" fill="#FF575F"/>
<rect x="166.266" y="88.3042" width="8.73494" height="40.8696" rx="4.36747" fill="#3DD598"/>
</svg>
