<svg width="80" height="45" viewBox="0 0 80 45" fill="none" xmlns="http://www.w3.org/2000/svg">
<g clip-path="url(#clip0)">
<path d="M33.6434 1.98554L34.1605 12.0152L33.4489 12.046C33.2595 10.5729 32.8199 9.1427 32.149 7.81687C31.4932 6.65127 30.5876 5.6444 29.497 4.86807C28.4887 4.13552 27.3369 3.62344 26.1167 3.36527C24.8168 3.07024 23.0907 2.92272 20.9384 2.92272H13.9644V21.1575H15.7814C17.6301 21.1575 19.0217 21.036 19.9564 20.793C20.8286 20.5875 21.6222 20.1337 22.2407 19.4866C22.8123 18.895 23.2443 18.1835 23.505 17.404C23.852 16.2466 24.0817 15.0573 24.1906 13.8541L24.8903 13.8849L24.7694 30.1743H24.0577C23.9378 28.8912 23.6671 27.6266 23.2512 26.4066C22.9274 25.5055 22.4248 24.6789 21.7734 23.9761C21.121 23.3036 20.303 22.814 19.4013 22.5561C18.1914 22.2228 16.9389 22.0697 15.6842 22.1017H13.9478V29.0596C13.9478 31.8364 14.019 33.8575 14.1613 35.1228C14.2575 36.2197 14.5356 37.293 14.9844 38.2988C15.626 39.7102 16.7491 40.8483 18.1536 41.5103C19.5642 42.1888 21.4271 42.528 23.7422 42.528C26.1808 42.528 28.2224 42.2187 29.867 41.6003C31.4459 41.0295 32.8369 40.0364 33.8877 38.7296C34.633 37.832 35.234 36.8245 35.6692 35.7429C36.2176 34.3133 36.6406 32.8389 36.9335 31.3363L37.6333 31.367L37.2372 43.4628H0.896484V42.7717C1.85462 42.747 2.804 42.5828 3.71455 42.2842C4.52739 41.9828 5.2501 41.4802 5.81483 40.8236C6.37955 40.1671 6.76776 39.3781 6.94298 38.5308C7.17545 37.5305 7.29247 35.9961 7.29405 33.9277V11.5301C7.29405 9.46167 7.17703 7.92653 6.94298 6.92466C6.74843 5.9954 6.3002 5.13788 5.64781 4.44682C5.1259 3.87714 4.47534 3.43984 3.75013 3.17121C2.82994 2.87243 1.87102 2.709 0.9036 2.68606V1.97607L33.6434 1.98554Z" fill="white"/>
<path d="M77.2334 1.77256L77.6011 15.3593H76.8894C76.6664 14.77 76.4933 14.3251 76.3723 14.0198C75.6607 12.0776 75.0819 10.6292 74.6359 9.67468C73.7976 7.9107 72.6294 6.32265 71.194 4.99588C70.1752 3.99919 68.9758 3.20489 67.6596 2.65531C66.348 2.15162 64.9516 1.90415 63.5463 1.92639C61.2533 1.92639 59.2631 2.42259 57.5757 3.41499C55.9713 4.39569 54.5662 5.66902 53.434 7.16844C52.1191 8.86309 51.0616 10.7419 50.2957 12.7442C49.1382 15.6835 48.5594 19.0267 48.5594 22.7739C48.5204 25.6837 48.9202 28.5829 49.7454 31.3741C50.5361 33.9269 51.6937 36.0648 53.2182 37.7877C56.022 40.9889 59.7383 42.5895 64.3671 42.5895C66.5096 42.6233 68.6361 42.2148 70.6128 41.3896C72.3358 40.6867 73.8243 39.5118 74.9063 38.0006C76.0845 36.3188 76.9377 34.0492 77.4659 31.1919L78.1775 31.315C77.7932 34.5146 76.9234 37.0572 75.5682 38.9426C74.2619 40.7538 72.467 42.1327 70.1835 43.0794C67.8999 44.026 65.2542 44.4994 62.2464 44.4994C59.5167 44.5101 56.8026 44.0892 54.205 43.2521C50.1218 41.9158 46.9337 39.5003 44.6406 36.0056C42.3476 32.5109 41.2003 28.3417 41.1987 23.4981C41.1614 19.9783 41.8451 16.488 43.2079 13.2412C44.5489 10.1141 46.4174 7.596 48.8132 5.68693C50.8028 4.15289 53.0446 2.97571 55.4385 2.20801C60.4682 0.449635 65.9536 0.486438 70.9592 2.31214L73.457 3.13336C73.8637 3.29921 74.2965 3.39214 74.7356 3.40789C74.9803 3.41072 75.222 3.35401 75.4398 3.24267C75.6577 3.13133 75.845 2.96872 75.9857 2.76891C76.1892 2.45133 76.3623 2.11537 76.5028 1.76546L77.2334 1.77256Z" fill="white"/>
<path d="M78.0714 30.6383H6.74609V13.4043H37.5966H78.0714V30.6383Z" fill="#0A1C46"/>
<path d="M6.75195 24.8061V20.1777H10.276V20.9587H7.70054V21.9839H10.0957V22.7603H7.70054V24.0182H10.3566V24.7969L6.75195 24.8061Z" fill="white"/>
<path d="M11.5859 24.8061L13.2104 22.3963L11.733 20.1777H12.8547L13.8033 21.6614L14.7352 20.1777H15.8475L14.37 22.4217L16.0016 24.8061H14.8443L13.789 23.2096L12.7337 24.8061H11.5859Z" fill="white"/>
<path d="M18.458 24.8061V20.9679H17.0352V20.1777H20.8129V20.9587H19.4066V24.7969L18.458 24.8061Z" fill="white"/>
<path d="M22.334 24.8061V20.1777H25.8603V20.9587H23.2944V21.9839H25.6801V22.7603H23.2944V24.0182H25.9623V24.7969L22.334 24.8061Z" fill="white"/>
<path d="M27.6621 24.8061V20.1777H28.5965L30.5411 23.2625V20.1777H31.4327V24.7854H30.4675L28.5538 21.7904V24.8015L27.6621 24.8061Z" fill="white"/>
<path d="M33.3348 20.1782H35.0897C35.3937 20.1681 35.6977 20.1983 35.9932 20.268C36.2653 20.3447 36.511 20.4911 36.7047 20.6919C36.9101 20.9068 37.0654 21.1622 37.16 21.4406C37.2712 21.7943 37.3232 22.163 37.3141 22.5327C37.3218 22.8653 37.2729 23.1969 37.1695 23.5141C37.0688 23.8215 36.894 24.1011 36.6596 24.3296C36.4681 24.5023 36.2373 24.6286 35.9861 24.6982C35.7099 24.7726 35.4237 24.806 35.1371 24.7973H33.3301L33.3348 20.1782ZM34.2953 20.9592V24.0186H35.0067C35.2015 24.0253 35.3964 24.0106 35.5877 23.9749C35.7312 23.9427 35.8641 23.8762 35.9743 23.7813C36.0973 23.6575 36.184 23.504 36.2256 23.3367C36.2986 23.0607 36.3314 22.7761 36.3229 22.4912C36.3328 22.2139 36.3 21.9367 36.2256 21.6687C36.1749 21.4998 36.0811 21.3461 35.9529 21.2218C35.8293 21.1101 35.6755 21.0349 35.5095 21.0052C35.2491 20.9661 34.9855 20.9507 34.7221 20.9592H34.2953Z" fill="white"/>
<path d="M44.7966 23.1084L45.7286 23.3941C45.6248 23.8345 45.3748 24.2296 45.0171 24.5184C44.5879 24.7967 44.0729 24.9225 43.5592 24.8747C43.0454 24.8268 42.5645 24.6082 42.1975 24.2557C41.77 23.7827 41.5511 23.1655 41.588 22.5371C41.588 21.7691 41.7919 21.1724 42.1998 20.747C42.4062 20.5351 42.6569 20.3685 42.935 20.2584C43.2132 20.1484 43.5123 20.0974 43.8124 20.1089C44.0719 20.0976 44.3312 20.1361 44.5754 20.2223C44.8195 20.3085 45.0438 20.4406 45.2353 20.6111C45.4747 20.8457 45.6429 21.1398 45.7215 21.4612L44.7729 21.6801C44.7248 21.4576 44.6002 21.2577 44.4195 21.1133C44.2345 20.9726 44.0046 20.8992 43.7697 20.906C43.6077 20.9008 43.4465 20.9313 43.2983 20.9951C43.15 21.0589 43.0186 21.1545 42.9136 21.2746C42.6931 21.5211 42.584 21.9173 42.584 22.468C42.584 23.0531 42.6907 23.4678 42.9065 23.7166C43.008 23.8371 43.1362 23.9338 43.2816 23.9992C43.427 24.0647 43.5858 24.0972 43.746 24.0945C43.9872 24.1016 44.2221 24.0192 44.4029 23.8641C44.6146 23.66 44.7527 23.395 44.7966 23.1084Z" fill="white"/>
<path d="M47.2481 22.5254C47.2359 22.1203 47.3102 21.7171 47.4663 21.3413C47.5729 21.106 47.7224 20.8914 47.9074 20.7077C48.0813 20.5307 48.2902 20.3896 48.5216 20.293C48.8469 20.1653 49.1953 20.1026 49.5461 20.1087C49.8563 20.0949 50.1661 20.1441 50.4556 20.2532C50.7451 20.3622 51.008 20.5288 51.2275 20.7423C51.6496 21.1639 51.8583 21.7514 51.8583 22.5024C51.8775 22.8199 51.8321 23.138 51.7247 23.4384C51.6173 23.7389 51.4499 24.0158 51.2322 24.2533C51.0144 24.4662 50.7531 24.6324 50.4651 24.7411C50.1772 24.8498 49.8689 24.8987 49.5603 24.8845C49.2497 24.8994 48.9393 24.8511 48.649 24.7428C48.3587 24.6345 48.0948 24.4686 47.8742 24.2556C47.6573 24.0217 47.4904 23.7484 47.3829 23.4514C47.2754 23.1544 47.2296 22.8397 47.2481 22.5254V22.5254ZM48.237 22.4932C48.206 22.9205 48.3386 23.3438 48.6094 23.6819C48.7296 23.8102 48.8761 23.9127 49.0394 23.9828C49.2028 24.0529 49.3794 24.0891 49.5579 24.0891C49.7365 24.0891 49.9131 24.0529 50.0765 23.9828C50.2398 23.9127 50.3863 23.8102 50.5065 23.6819C50.7708 23.3369 50.8972 22.9104 50.8622 22.4817C50.8955 22.0577 50.7681 21.6366 50.5042 21.2975C50.3805 21.1728 50.2322 21.0737 50.0682 21.006C49.9042 20.9382 49.7278 20.9033 49.5496 20.9033C49.3714 20.9033 49.1951 20.9382 49.0311 21.006C48.8671 21.0737 48.7188 21.1728 48.5951 21.2975C48.3284 21.6397 48.2009 22.0654 48.237 22.4932V22.4932Z" fill="white"/>
<path d="M53.5059 24.8061V20.1777H54.4402L56.3848 23.2625V20.1777H57.2765V24.7854H56.3161L54.3975 21.7904V24.8015L53.5059 24.8061Z" fill="white"/>
<path d="M58.9395 23.3046L59.8738 23.2148C59.9028 23.4703 60.0238 23.7077 60.2153 23.8852C60.4124 24.0364 60.6594 24.1125 60.9101 24.0994C61.1589 24.1176 61.4063 24.0508 61.6097 23.9105C61.6818 23.8587 61.7407 23.7914 61.7819 23.7139C61.823 23.6364 61.8452 23.5508 61.8469 23.4636C61.8491 23.3621 61.8138 23.2632 61.7473 23.1848C61.6518 23.0909 61.5336 23.022 61.4034 22.9844C61.2896 22.9475 61.0334 22.8807 60.635 22.784C60.2424 22.7126 59.8717 22.555 59.5513 22.3232C59.4137 22.2098 59.3031 22.0686 59.2274 21.9094C59.1516 21.7503 59.1124 21.577 59.1126 21.4017C59.1126 21.167 59.1844 20.9377 59.3189 20.7428C59.4645 20.5349 59.671 20.3744 59.9118 20.282C60.2133 20.1658 60.5361 20.1109 60.8603 20.1208C61.4556 20.1208 61.9061 20.2475 62.2073 20.5032C62.3569 20.6294 62.4768 20.7855 62.5586 20.9609C62.6405 21.1362 62.6824 21.3266 62.6816 21.5192L61.733 21.5606C61.7128 21.3641 61.6181 21.1818 61.4674 21.0492C61.2887 20.9327 61.075 20.8775 60.8603 20.8925C60.6292 20.8789 60.3998 20.9379 60.2058 21.0607C60.1575 21.092 60.1181 21.1345 60.0912 21.1844C60.0643 21.2343 60.0507 21.29 60.0517 21.3464C60.052 21.4006 60.065 21.4541 60.0896 21.5028C60.1143 21.5514 60.1499 21.5941 60.194 21.6274C60.466 21.7822 60.765 21.8869 61.0761 21.9362C61.434 22.0059 61.782 22.1173 62.1125 22.2679C62.3271 22.3732 62.5088 22.5323 62.6389 22.7287C62.7697 22.9559 62.8352 23.213 62.8285 23.4732C62.8218 23.7335 62.7432 23.9871 62.601 24.2077C62.4471 24.4398 62.2224 24.6195 61.9583 24.7215C61.6285 24.8432 61.2771 24.9004 60.9244 24.8896C60.4278 24.9219 59.9359 24.7787 59.5394 24.4865C59.1895 24.1829 58.9744 23.7592 58.9395 23.3046Z" fill="white"/>
<path d="M64.4951 20.1777H65.4437V22.6889C65.4359 22.9467 65.4478 23.2046 65.4793 23.4607C65.5148 23.6445 65.6197 23.8088 65.7733 23.9214C65.9588 24.0457 66.1815 24.1065 66.4065 24.0942C66.6249 24.11 66.8423 24.0531 67.0231 23.933C67.1549 23.8354 67.2438 23.693 67.2721 23.5344C67.3069 23.274 67.3212 23.0113 67.3148 22.7488V20.1777H68.2752V22.6037C68.2876 22.9968 68.2614 23.3903 68.197 23.7786C68.1524 23.9923 68.0538 24.1918 67.91 24.3592C67.757 24.526 67.5651 24.6547 67.3503 24.7347C67.0582 24.8385 66.7482 24.8862 66.4373 24.8752C66.0857 24.8919 65.7342 24.8402 65.4034 24.7232C65.1903 24.6341 65.0018 24.4976 64.8532 24.3246C64.7238 24.1766 64.6313 24.0016 64.5829 23.8132C64.5106 23.4272 64.4796 23.035 64.4904 22.6428L64.4951 20.1777Z" fill="white"/>
<path d="M70.2109 24.8061V20.2261H71.1598V24.0274H73.5485V24.8061H70.2109Z" fill="white"/>
<path d="M75.7098 24.8061V20.9679H74.2988V20.1777H78.0766V20.9587H76.6679V24.7969L75.7098 24.8061Z" fill="white"/>
</g>
<defs>
<clipPath id="clip0">
<rect width="80" height="45" fill="white"/>
</clipPath>
</defs>
</svg>
