<svg width="405" height="227" viewBox="0 0 405 227" fill="none" xmlns="http://www.w3.org/2000/svg">
<ellipse cx="3.02239" cy="179.983" rx="3.01648" ry="3.02239" transform="rotate(-90 3.02239 179.983)" fill="#1258FF"/>
<ellipse cx="3.02239" cy="223.983" rx="3.01648" ry="3.02239" transform="rotate(-90 3.02239 223.983)" fill="#1258FF"/>
<ellipse cx="3.02239" cy="135.742" rx="3.01648" ry="3.02239" transform="rotate(-90 3.02239 135.742)" fill="#1258FF"/>
<ellipse cx="3.02239" cy="91.5006" rx="3.01648" ry="3.02239" transform="rotate(-90 3.02239 91.5006)" fill="#1258FF"/>
<ellipse cx="3.02239" cy="47.2579" rx="3.01648" ry="3.02239" transform="rotate(-90 3.02239 47.2579)" fill="#1258FF"/>
<ellipse cx="3.02239" cy="3.01672" rx="3.01648" ry="3.02239" transform="rotate(-90 3.02239 3.01672)" fill="#1258FF"/>
<ellipse cx="47.3505" cy="179.984" rx="3.01648" ry="3.02239" transform="rotate(-90 47.3505 179.984)" fill="#1258FF"/>
<ellipse cx="47.3505" cy="223.984" rx="3.01648" ry="3.02239" transform="rotate(-90 47.3505 223.984)" fill="#1258FF"/>
<ellipse cx="47.3505" cy="135.742" rx="3.01648" ry="3.02239" transform="rotate(-90 47.3505 135.742)" fill="#1258FF"/>
<ellipse cx="47.3505" cy="91.5011" rx="3.01648" ry="3.02239" transform="rotate(-90 47.3505 91.5011)" fill="#1258FF"/>
<ellipse cx="47.3505" cy="47.2579" rx="3.01648" ry="3.02239" transform="rotate(-90 47.3505 47.2579)" fill="#1258FF"/>
<ellipse cx="47.3505" cy="3.01672" rx="3.01648" ry="3.02239" transform="rotate(-90 47.3505 3.01672)" fill="#1258FF"/>
<ellipse cx="91.6786" cy="179.984" rx="3.01648" ry="3.02239" transform="rotate(-90 91.6786 179.984)" fill="#1258FF"/>
<ellipse cx="91.6786" cy="223.984" rx="3.01648" ry="3.02239" transform="rotate(-90 91.6786 223.984)" fill="#1258FF"/>
<ellipse cx="91.6786" cy="135.742" rx="3.01648" ry="3.02239" transform="rotate(-90 91.6786 135.742)" fill="#1258FF"/>
<ellipse cx="91.6786" cy="91.5011" rx="3.01648" ry="3.02239" transform="rotate(-90 91.6786 91.5011)" fill="#1258FF"/>
<ellipse cx="91.6786" cy="47.2579" rx="3.01648" ry="3.02239" transform="rotate(-90 91.6786 47.2579)" fill="#1258FF"/>
<ellipse cx="91.6786" cy="3.01672" rx="3.01648" ry="3.02239" transform="rotate(-90 91.6786 3.01672)" fill="#1258FF"/>
<ellipse cx="136.007" cy="179.984" rx="3.01648" ry="3.02239" transform="rotate(-90 136.007 179.984)" fill="#1258FF"/>
<ellipse cx="136.007" cy="223.984" rx="3.01648" ry="3.02239" transform="rotate(-90 136.007 223.984)" fill="#1258FF"/>
<ellipse cx="136.007" cy="135.742" rx="3.01648" ry="3.02239" transform="rotate(-90 136.007 135.742)" fill="#1258FF"/>
<ellipse cx="136.007" cy="91.5011" rx="3.01648" ry="3.02239" transform="rotate(-90 136.007 91.5011)" fill="#1258FF"/>
<ellipse cx="136.007" cy="47.2579" rx="3.01648" ry="3.02239" transform="rotate(-90 136.007 47.2579)" fill="#1258FF"/>
<ellipse cx="136.007" cy="3.01672" rx="3.01648" ry="3.02239" transform="rotate(-90 136.007 3.01672)" fill="#1258FF"/>
<ellipse cx="180.337" cy="179.984" rx="3.01648" ry="3.02239" transform="rotate(-90 180.337 179.984)" fill="#1258FF"/>
<ellipse cx="180.337" cy="223.984" rx="3.01648" ry="3.02239" transform="rotate(-90 180.337 223.984)" fill="#1258FF"/>
<ellipse cx="180.335" cy="135.742" rx="3.01648" ry="3.02239" transform="rotate(-90 180.335 135.742)" fill="#1258FF"/>
<ellipse cx="180.335" cy="91.5011" rx="3.01648" ry="3.02239" transform="rotate(-90 180.335 91.5011)" fill="#1258FF"/>
<ellipse cx="180.335" cy="47.2579" rx="3.01648" ry="3.02239" transform="rotate(-90 180.335 47.2579)" fill="#1258FF"/>
<ellipse cx="180.335" cy="3.01672" rx="3.01648" ry="3.02239" transform="rotate(-90 180.335 3.01672)" fill="#1258FF"/>
<ellipse cx="224.663" cy="179.984" rx="3.01648" ry="3.02239" transform="rotate(-90 224.663 179.984)" fill="#1258FF"/>
<ellipse cx="224.663" cy="223.984" rx="3.01648" ry="3.02239" transform="rotate(-90 224.663 223.984)" fill="#1258FF"/>
<ellipse cx="224.665" cy="135.742" rx="3.01648" ry="3.02239" transform="rotate(-90 224.665 135.742)" fill="#1258FF"/>
<ellipse cx="224.665" cy="91.5011" rx="3.01648" ry="3.02239" transform="rotate(-90 224.665 91.5011)" fill="#1258FF"/>
<ellipse cx="224.665" cy="47.2579" rx="3.01648" ry="3.02239" transform="rotate(-90 224.665 47.2579)" fill="#1258FF"/>
<ellipse cx="224.665" cy="3.01672" rx="3.01648" ry="3.02239" transform="rotate(-90 224.665 3.01672)" fill="#1258FF"/>
<ellipse cx="268.991" cy="179.984" rx="3.01648" ry="3.02239" transform="rotate(-90 268.991 179.984)" fill="#1258FF"/>
<ellipse cx="268.991" cy="223.984" rx="3.01648" ry="3.02239" transform="rotate(-90 268.991 223.984)" fill="#1258FF"/>
<ellipse cx="268.991" cy="135.742" rx="3.01648" ry="3.02239" transform="rotate(-90 268.991 135.742)" fill="#1258FF"/>
<ellipse cx="268.991" cy="91.5011" rx="3.01648" ry="3.02239" transform="rotate(-90 268.991 91.5011)" fill="#1258FF"/>
<ellipse cx="268.991" cy="47.2579" rx="3.01648" ry="3.02239" transform="rotate(-90 268.991 47.2579)" fill="#1258FF"/>
<ellipse cx="268.991" cy="3.01672" rx="3.01648" ry="3.02239" transform="rotate(-90 268.991 3.01672)" fill="#1258FF"/>
<ellipse cx="313.321" cy="179.984" rx="3.01648" ry="3.02239" transform="rotate(-90 313.321 179.984)" fill="#1258FF"/>
<ellipse cx="313.321" cy="223.984" rx="3.01648" ry="3.02239" transform="rotate(-90 313.321 223.984)" fill="#1258FF"/>
<ellipse cx="313.321" cy="135.742" rx="3.01648" ry="3.02239" transform="rotate(-90 313.321 135.742)" fill="#1258FF"/>
<ellipse cx="313.321" cy="91.5011" rx="3.01648" ry="3.02239" transform="rotate(-90 313.321 91.5011)" fill="#1258FF"/>
<ellipse cx="313.321" cy="47.2579" rx="3.01648" ry="3.02239" transform="rotate(-90 313.321 47.2579)" fill="#1258FF"/>
<ellipse cx="313.321" cy="3.01672" rx="3.01648" ry="3.02239" transform="rotate(-90 313.321 3.01672)" fill="#1258FF"/>
<ellipse cx="357.647" cy="179.984" rx="3.01648" ry="3.02239" transform="rotate(-90 357.647 179.984)" fill="#1258FF"/>
<ellipse cx="357.647" cy="223.984" rx="3.01648" ry="3.02239" transform="rotate(-90 357.647 223.984)" fill="#1258FF"/>
<ellipse cx="357.649" cy="135.742" rx="3.01648" ry="3.02239" transform="rotate(-90 357.649 135.742)" fill="#1258FF"/>
<ellipse cx="357.649" cy="91.5011" rx="3.01648" ry="3.02239" transform="rotate(-90 357.649 91.5011)" fill="#1258FF"/>
<ellipse cx="357.649" cy="47.2579" rx="3.01648" ry="3.02239" transform="rotate(-90 357.649 47.2579)" fill="#1258FF"/>
<ellipse cx="357.649" cy="3.01672" rx="3.01648" ry="3.02239" transform="rotate(-90 357.649 3.01672)" fill="#1258FF"/>
<ellipse cx="401.977" cy="179.984" rx="3.01648" ry="3.02239" transform="rotate(-90 401.977 179.984)" fill="#1258FF"/>
<ellipse cx="401.977" cy="223.984" rx="3.01648" ry="3.02239" transform="rotate(-90 401.977 223.984)" fill="#1258FF"/>
<ellipse cx="401.977" cy="135.742" rx="3.01648" ry="3.02239" transform="rotate(-90 401.977 135.742)" fill="#1258FF"/>
<ellipse cx="401.977" cy="91.5011" rx="3.01648" ry="3.02239" transform="rotate(-90 401.977 91.5011)" fill="#1258FF"/>
<ellipse cx="401.977" cy="47.2579" rx="3.01648" ry="3.02239" transform="rotate(-90 401.977 47.2579)" fill="#1258FF"/>
<ellipse cx="401.977" cy="3.01672" rx="3.01648" ry="3.02239" transform="rotate(-90 401.977 3.01672)" fill="#1258FF"/>
</svg>
