<svg width="200" height="355" viewBox="0 0 200 355" fill="none" xmlns="http://www.w3.org/2000/svg">
<ellipse cx="41.4233" cy="2.64925" rx="2.6577" ry="2.64925" fill="#29AAF3"/>
<ellipse cx="2.6577" cy="2.64925" rx="2.6577" ry="2.64925" fill="#29AAF3"/>
<ellipse cx="80.4038" cy="2.64925" rx="2.6577" ry="2.64925" fill="#29AAF3"/>
<ellipse cx="119.382" cy="2.64925" rx="2.6577" ry="2.64925" fill="#29AAF3"/>
<ellipse cx="158.363" cy="2.64925" rx="2.6577" ry="2.64925" fill="#29AAF3"/>
<ellipse cx="197.341" cy="2.64925" rx="2.6577" ry="2.64925" fill="#29AAF3"/>
<ellipse cx="41.4233" cy="41.5047" rx="2.6577" ry="2.64925" fill="#29AAF3"/>
<ellipse cx="2.6577" cy="41.5047" rx="2.6577" ry="2.64925" fill="#29AAF3"/>
<ellipse cx="80.4038" cy="41.5042" rx="2.6577" ry="2.64925" fill="#29AAF3"/>
<ellipse cx="119.382" cy="41.5042" rx="2.6577" ry="2.64925" fill="#29AAF3"/>
<ellipse cx="158.365" cy="41.5042" rx="2.6577" ry="2.64925" fill="#29AAF3"/>
<ellipse cx="197.341" cy="41.5042" rx="2.6577" ry="2.64925" fill="#29AAF3"/>
<ellipse cx="41.4233" cy="80.3602" rx="2.6577" ry="2.64925" fill="#29AAF3"/>
<ellipse cx="2.6577" cy="80.3602" rx="2.6577" ry="2.64925" fill="#29AAF3"/>
<ellipse cx="80.4038" cy="80.3602" rx="2.6577" ry="2.64925" fill="#29AAF3"/>
<ellipse cx="119.382" cy="80.3602" rx="2.6577" ry="2.64925" fill="#29AAF3"/>
<ellipse cx="158.365" cy="80.3602" rx="2.6577" ry="2.64925" fill="#29AAF3"/>
<ellipse cx="197.341" cy="80.3602" rx="2.6577" ry="2.64925" fill="#29AAF3"/>
<ellipse cx="41.4233" cy="119.217" rx="2.6577" ry="2.64925" fill="#29AAF3"/>
<ellipse cx="2.6577" cy="119.217" rx="2.6577" ry="2.64925" fill="#29AAF3"/>
<ellipse cx="80.4038" cy="119.216" rx="2.6577" ry="2.64925" fill="#29AAF3"/>
<ellipse cx="119.382" cy="119.216" rx="2.6577" ry="2.64925" fill="#29AAF3"/>
<ellipse cx="158.365" cy="119.216" rx="2.6577" ry="2.64925" fill="#29AAF3"/>
<ellipse cx="197.341" cy="119.216" rx="2.6577" ry="2.64925" fill="#29AAF3"/>
<ellipse cx="41.4233" cy="158.073" rx="2.6577" ry="2.64925" fill="#29AAF3"/>
<ellipse cx="2.6577" cy="158.073" rx="2.6577" ry="2.64925" fill="#29AAF3"/>
<ellipse cx="80.4038" cy="158.072" rx="2.6577" ry="2.64925" fill="#29AAF3"/>
<ellipse cx="119.382" cy="158.072" rx="2.6577" ry="2.64925" fill="#29AAF3"/>
<ellipse cx="158.365" cy="158.072" rx="2.6577" ry="2.64925" fill="#29AAF3"/>
<ellipse cx="197.341" cy="158.072" rx="2.6577" ry="2.64925" fill="#29AAF3"/>
<ellipse cx="41.4233" cy="196.928" rx="2.6577" ry="2.64925" fill="#29AAF3"/>
<ellipse cx="2.6577" cy="196.928" rx="2.6577" ry="2.64925" fill="#29AAF3"/>
<ellipse cx="80.4038" cy="196.928" rx="2.6577" ry="2.64925" fill="#29AAF3"/>
<ellipse cx="119.382" cy="196.928" rx="2.6577" ry="2.64925" fill="#29AAF3"/>
<ellipse cx="158.365" cy="196.928" rx="2.6577" ry="2.64925" fill="#29AAF3"/>
<ellipse cx="197.341" cy="196.928" rx="2.6577" ry="2.64925" fill="#29AAF3"/>
<ellipse cx="41.4233" cy="235.783" rx="2.6577" ry="2.64925" fill="#29AAF3"/>
<ellipse cx="2.6577" cy="235.783" rx="2.6577" ry="2.64925" fill="#29AAF3"/>
<ellipse cx="80.4038" cy="235.783" rx="2.6577" ry="2.64925" fill="#29AAF3"/>
<ellipse cx="119.382" cy="235.783" rx="2.6577" ry="2.64925" fill="#29AAF3"/>
<ellipse cx="158.365" cy="235.783" rx="2.6577" ry="2.64925" fill="#29AAF3"/>
<ellipse cx="197.341" cy="235.783" rx="2.6577" ry="2.64925" fill="#29AAF3"/>
<ellipse cx="41.4233" cy="274.639" rx="2.6577" ry="2.64925" fill="#29AAF3"/>
<ellipse cx="2.6577" cy="274.639" rx="2.6577" ry="2.64925" fill="#29AAF3"/>
<ellipse cx="80.4038" cy="274.639" rx="2.6577" ry="2.64925" fill="#29AAF3"/>
<ellipse cx="119.382" cy="274.639" rx="2.6577" ry="2.64925" fill="#29AAF3"/>
<ellipse cx="158.365" cy="274.639" rx="2.6577" ry="2.64925" fill="#29AAF3"/>
<ellipse cx="197.341" cy="274.639" rx="2.6577" ry="2.64925" fill="#29AAF3"/>
<ellipse cx="41.4233" cy="313.494" rx="2.6577" ry="2.64925" fill="#29AAF3"/>
<ellipse cx="2.6577" cy="313.494" rx="2.6577" ry="2.64925" fill="#29AAF3"/>
<ellipse cx="80.4038" cy="313.494" rx="2.6577" ry="2.64925" fill="#29AAF3"/>
<ellipse cx="119.382" cy="313.494" rx="2.6577" ry="2.64925" fill="#29AAF3"/>
<ellipse cx="158.365" cy="313.494" rx="2.6577" ry="2.64925" fill="#29AAF3"/>
<ellipse cx="197.341" cy="313.494" rx="2.6577" ry="2.64925" fill="#29AAF3"/>
<ellipse cx="41.4233" cy="352.351" rx="2.6577" ry="2.64925" fill="#29AAF3"/>
<ellipse cx="2.6577" cy="352.351" rx="2.6577" ry="2.64925" fill="#29AAF3"/>
<ellipse cx="80.4038" cy="352.351" rx="2.6577" ry="2.64925" fill="#29AAF3"/>
<ellipse cx="119.382" cy="352.351" rx="2.6577" ry="2.64925" fill="#29AAF3"/>
<ellipse cx="158.365" cy="352.351" rx="2.6577" ry="2.64925" fill="#29AAF3"/>
<ellipse cx="197.341" cy="352.351" rx="2.6577" ry="2.64925" fill="#29AAF3"/>
</svg>
