<svg width="227" height="405" viewBox="0 0 227 405" fill="none" xmlns="http://www.w3.org/2000/svg">
<ellipse cx="47.0165" cy="3.02239" rx="3.01648" ry="3.02239" fill="#FFA62B"/>
<ellipse cx="3.01648" cy="3.02239" rx="3.01648" ry="3.02239" fill="#FFA62B"/>
<ellipse cx="91.2587" cy="3.02239" rx="3.01648" ry="3.02239" fill="#FFA62B"/>
<ellipse cx="135.499" cy="3.02239" rx="3.01648" ry="3.02239" fill="#FFA62B"/>
<ellipse cx="179.741" cy="3.02239" rx="3.01648" ry="3.02239" fill="#FFA62B"/>
<ellipse cx="223.983" cy="3.02239" rx="3.01648" ry="3.02239" fill="#FFA62B"/>
<ellipse cx="47.0165" cy="47.3505" rx="3.01648" ry="3.02239" fill="#FFA62B"/>
<ellipse cx="3.01648" cy="47.3505" rx="3.01648" ry="3.02239" fill="#FFA62B"/>
<ellipse cx="91.2587" cy="47.35" rx="3.01648" ry="3.02239" fill="#FFA62B"/>
<ellipse cx="135.499" cy="47.35" rx="3.01648" ry="3.02239" fill="#FFA62B"/>
<ellipse cx="179.743" cy="47.35" rx="3.01648" ry="3.02239" fill="#FFA62B"/>
<ellipse cx="223.983" cy="47.35" rx="3.01648" ry="3.02239" fill="#FFA62B"/>
<ellipse cx="47.0165" cy="91.6786" rx="3.01648" ry="3.02239" fill="#FFA62B"/>
<ellipse cx="3.01648" cy="91.6786" rx="3.01648" ry="3.02239" fill="#FFA62B"/>
<ellipse cx="91.2587" cy="91.6786" rx="3.01648" ry="3.02239" fill="#FFA62B"/>
<ellipse cx="135.499" cy="91.6786" rx="3.01648" ry="3.02239" fill="#FFA62B"/>
<ellipse cx="179.743" cy="91.6786" rx="3.01648" ry="3.02239" fill="#FFA62B"/>
<ellipse cx="223.983" cy="91.6786" rx="3.01648" ry="3.02239" fill="#FFA62B"/>
<ellipse cx="47.0165" cy="136.008" rx="3.01648" ry="3.02239" fill="#FFA62B"/>
<ellipse cx="3.01648" cy="136.008" rx="3.01648" ry="3.02239" fill="#FFA62B"/>
<ellipse cx="91.2587" cy="136.007" rx="3.01648" ry="3.02239" fill="#FFA62B"/>
<ellipse cx="135.499" cy="136.007" rx="3.01648" ry="3.02239" fill="#FFA62B"/>
<ellipse cx="179.743" cy="136.007" rx="3.01648" ry="3.02239" fill="#FFA62B"/>
<ellipse cx="223.983" cy="136.007" rx="3.01648" ry="3.02239" fill="#FFA62B"/>
<ellipse cx="47.0165" cy="180.336" rx="3.01648" ry="3.02239" fill="#FFA62B"/>
<ellipse cx="3.01648" cy="180.336" rx="3.01648" ry="3.02239" fill="#FFA62B"/>
<ellipse cx="91.2587" cy="180.336" rx="3.01648" ry="3.02239" fill="#FFA62B"/>
<ellipse cx="135.499" cy="180.336" rx="3.01648" ry="3.02239" fill="#FFA62B"/>
<ellipse cx="179.743" cy="180.336" rx="3.01648" ry="3.02239" fill="#FFA62B"/>
<ellipse cx="223.983" cy="180.336" rx="3.01648" ry="3.02239" fill="#FFA62B"/>
<ellipse cx="47.0165" cy="224.664" rx="3.01648" ry="3.02239" fill="#FFA62B"/>
<ellipse cx="3.01648" cy="224.664" rx="3.01648" ry="3.02239" fill="#FFA62B"/>
<ellipse cx="91.2587" cy="224.664" rx="3.01648" ry="3.02239" fill="#FFA62B"/>
<ellipse cx="135.499" cy="224.664" rx="3.01648" ry="3.02239" fill="#FFA62B"/>
<ellipse cx="179.743" cy="224.664" rx="3.01648" ry="3.02239" fill="#FFA62B"/>
<ellipse cx="223.983" cy="224.664" rx="3.01648" ry="3.02239" fill="#FFA62B"/>
<ellipse cx="47.0165" cy="268.992" rx="3.01648" ry="3.02239" fill="#FFA62B"/>
<ellipse cx="3.01648" cy="268.992" rx="3.01648" ry="3.02239" fill="#FFA62B"/>
<ellipse cx="91.2587" cy="268.992" rx="3.01648" ry="3.02239" fill="#FFA62B"/>
<ellipse cx="135.499" cy="268.992" rx="3.01648" ry="3.02239" fill="#FFA62B"/>
<ellipse cx="179.743" cy="268.992" rx="3.01648" ry="3.02239" fill="#FFA62B"/>
<ellipse cx="223.983" cy="268.992" rx="3.01648" ry="3.02239" fill="#FFA62B"/>
<ellipse cx="47.0165" cy="313.321" rx="3.01648" ry="3.02239" fill="#FFA62B"/>
<ellipse cx="3.01648" cy="313.321" rx="3.01648" ry="3.02239" fill="#FFA62B"/>
<ellipse cx="91.2587" cy="313.321" rx="3.01648" ry="3.02239" fill="#FFA62B"/>
<ellipse cx="135.499" cy="313.321" rx="3.01648" ry="3.02239" fill="#FFA62B"/>
<ellipse cx="179.743" cy="313.321" rx="3.01648" ry="3.02239" fill="#FFA62B"/>
<ellipse cx="223.983" cy="313.321" rx="3.01648" ry="3.02239" fill="#FFA62B"/>
<ellipse cx="47.0165" cy="357.648" rx="3.01648" ry="3.02239" fill="#FFA62B"/>
<ellipse cx="3.01648" cy="357.648" rx="3.01648" ry="3.02239" fill="#FFA62B"/>
<ellipse cx="91.2587" cy="357.648" rx="3.01648" ry="3.02239" fill="#FFA62B"/>
<ellipse cx="135.499" cy="357.648" rx="3.01648" ry="3.02239" fill="#FFA62B"/>
<ellipse cx="179.743" cy="357.648" rx="3.01648" ry="3.02239" fill="#FFA62B"/>
<ellipse cx="223.983" cy="357.648" rx="3.01648" ry="3.02239" fill="#FFA62B"/>
<ellipse cx="47.0165" cy="401.977" rx="3.01648" ry="3.02239" fill="#FFA62B"/>
<ellipse cx="3.01648" cy="401.977" rx="3.01648" ry="3.02239" fill="#FFA62B"/>
<ellipse cx="91.2587" cy="401.977" rx="3.01648" ry="3.02239" fill="#FFA62B"/>
<ellipse cx="135.499" cy="401.977" rx="3.01648" ry="3.02239" fill="#FFA62B"/>
<ellipse cx="179.743" cy="401.977" rx="3.01648" ry="3.02239" fill="#FFA62B"/>
<ellipse cx="223.983" cy="401.977" rx="3.01648" ry="3.02239" fill="#FFA62B"/>
</svg>
