<svg width="45" height="45" viewBox="0 0 45 45" fill="none" xmlns="http://www.w3.org/2000/svg">
<g clip-path="url(#clip0)">
<path d="M18.5058 12.042C13.3537 12.042 9.16211 16.2389 9.16211 21.3977C9.16211 26.5564 13.3537 30.7534 18.5058 30.7534C23.658 30.7534 27.8496 26.5564 27.8496 21.3977C27.8496 16.2389 23.6581 12.042 18.5058 12.042ZM18.5058 26.6067C15.6327 26.6067 13.3035 24.2745 13.3035 21.3977C13.3035 18.5209 15.6327 16.1887 18.5058 16.1887C21.379 16.1887 23.7082 18.5209 23.7082 21.3977C23.7082 24.2745 21.3791 26.6067 18.5058 26.6067Z" fill="#FFA62B"/>
<path d="M43.6888 21.2984L44.9143 18.7303C45.0443 18.458 45.0254 18.1381 44.8645 17.8828C44.7035 17.6277 44.4228 17.4728 44.1211 17.4728H37.8279C37.5046 17.4728 37.2074 17.6504 37.0541 17.935L36.7769 18.4498C35.3626 9.62938 27.7076 2.86963 18.5055 2.86963C8.30153 2.86963 0 11.1813 0 21.3977C0 28.3215 3.81287 34.3704 9.44675 37.5503L6.37066 40.6303C6.02763 40.9737 6.02807 41.5302 6.37145 41.8732C6.54302 42.0446 6.76775 42.1302 6.99249 42.1302C7.21758 42.1302 7.44275 42.0442 7.6144 41.8723L11.1037 38.3787C13.3715 39.3734 15.8752 39.9257 18.5055 39.9257C21.1357 39.9257 23.6395 39.3734 25.9073 38.3787L29.3965 41.8723C29.5682 42.0442 29.7933 42.1302 30.0183 42.1302C30.2431 42.1302 30.4678 42.0445 30.6394 41.8732C30.9829 41.5302 30.9832 40.9737 30.6402 40.6303L27.5643 37.5503C32.4255 34.8065 35.9309 29.9266 36.8009 24.1917L37.0542 24.6619C37.2074 24.9466 37.5047 25.1242 37.828 25.1242H44.1211C44.4228 25.1242 44.7035 24.9694 44.8645 24.7141C45.0254 24.4589 45.0443 24.139 44.9143 23.8667L43.6888 21.2984ZM18.5055 38.1679C9.27079 38.1679 1.75781 30.6448 1.75781 21.3977C1.75781 12.1505 9.27079 4.62744 18.5055 4.62744C27.4122 4.62744 34.7174 11.6258 35.225 20.4195H32.8366C32.3328 12.9441 26.0976 7.0164 18.5055 7.0164C10.5852 7.0164 4.14149 13.4678 4.14149 21.3978C4.14149 29.3277 10.5852 35.779 18.5055 35.779C26.1647 35.779 32.4429 29.7461 32.8487 22.1774H35.2353C34.8271 31.064 27.4792 38.1679 18.5055 38.1679ZM24.5082 20.4195C24.0394 17.526 21.5261 15.3098 18.5055 15.3098C15.1523 15.3098 12.4242 18.0409 12.4242 21.3978C12.4242 24.7547 15.1523 27.4857 18.5055 27.4857C21.5948 27.4857 24.1536 25.1675 24.537 22.1774H31.0879C30.6844 28.7764 25.1952 34.0213 18.5055 34.0213C11.5544 34.0213 5.89922 28.3584 5.89922 21.3979C5.89922 14.4372 11.5544 8.7743 18.5055 8.7743C25.1279 8.7743 30.574 13.9143 31.0743 20.4196H24.5082V20.4195ZM18.5055 22.1774H22.7586C22.3909 24.1942 20.6237 25.7278 18.5055 25.7278C16.1215 25.7278 14.182 23.7853 14.182 21.3977C14.182 19.01 16.1215 17.0676 18.5055 17.0676C20.5537 17.0676 22.2737 18.5014 22.7176 20.4195H18.5055C18.02 20.4195 17.6266 20.8129 17.6266 21.2984C17.6266 21.7839 18.02 22.1774 18.5055 22.1774ZM41.9217 21.6769L42.7279 23.3662H38.353L37.2395 21.2984L38.353 19.2306H42.7279L41.9217 20.9199C41.8075 21.1593 41.8075 21.4375 41.9217 21.6769Z" fill="#0A1C46"/>
</g>
<defs>
<clipPath id="clip0">
<rect width="45" height="45" fill="white"/>
</clipPath>
</defs>
</svg>
