<svg width="40" height="40" viewBox="0 0 40 40" fill="none" xmlns="http://www.w3.org/2000/svg">
<path d="M20 40C31.0457 40 40 31.0457 40 20C40 8.9543 31.0457 0 20 0C8.9543 0 0 8.9543 0 20C0 31.0457 8.9543 40 20 40Z" fill="#6F3FAA"/>
<path d="M28.6774 10.9726C23.8093 9.79679 18.9325 8.42148 13.9402 10.1688C10.7078 11.3809 10.7078 14.8826 10.8425 17.8456C10.8425 18.6537 9.89978 19.7312 10.3038 20.6739C11.1118 23.3675 11.7852 26.0611 14.6135 27.4079C15.0176 27.6773 14.6135 28.2159 14.8829 28.62C14.7482 28.62 14.4788 28.7547 14.4788 28.8894C14.4788 29.5349 14.7685 30.5223 14.5761 31.1589L23.1703 39.7495C32.0055 38.3425 38.9108 31.1505 39.8824 22.1776L28.6774 10.9726Z" fill="#512D84"/>
<path d="M30.5795 14.0561L30.573 14.0297C30.0386 11.8693 27.6294 9.55117 25.4169 9.06891L25.392 9.06375C21.8134 8.38109 18.1848 8.38109 14.607 9.06375L14.5813 9.06891C12.3696 9.55117 9.96031 11.8695 9.42523 14.0297L9.4193 14.0561C8.75867 17.073 8.75867 20.1327 9.4193 23.1497L9.42523 23.1761C9.93758 25.2442 12.1673 27.4559 14.2973 28.0641V30.4757C14.2973 31.3486 15.3609 31.7773 15.9658 31.1473L18.4091 28.6076C18.9391 28.6372 19.4694 28.6537 19.9995 28.6537C21.8008 28.6537 23.603 28.4834 25.3919 28.1421L25.4168 28.137C27.6293 27.6547 30.0385 25.3364 30.5729 23.1762L30.5795 23.1498C31.2401 20.1327 31.2401 17.0732 30.5795 14.0561ZM28.6459 22.7123C28.2891 24.1217 26.4598 25.8739 25.0064 26.1977C23.1037 26.5595 21.1858 26.7141 19.2698 26.6611C19.2317 26.66 19.1951 26.6748 19.1686 26.7022C18.8966 26.9813 17.3846 28.5336 17.3846 28.5336L15.4871 30.4811C15.3484 30.6258 15.1046 30.5273 15.1046 30.3277V26.3327C15.1046 26.2666 15.0575 26.2106 14.9927 26.1978C14.9923 26.1977 14.992 26.1977 14.9916 26.1976C13.5381 25.8738 11.7095 24.1216 11.3521 22.7122C10.7575 19.9852 10.7575 17.2206 11.3521 14.4936C11.7095 13.0841 13.5381 11.332 14.9916 11.0082C18.3147 10.3762 21.6841 10.3762 25.0065 11.0082C26.4606 11.332 28.2891 13.0841 28.6459 14.4936C29.2412 17.2207 29.2412 19.9852 28.6459 22.7123Z" fill="white"/>
<path d="M23.1625 24.5565C22.9391 24.4886 22.7262 24.443 22.5283 24.3611C20.479 23.5108 18.593 22.414 17.0992 20.7326C16.2497 19.7766 15.5848 18.6971 15.0227 17.5548C14.7562 17.013 14.5316 16.4501 14.3026 15.8908C14.0938 15.3808 14.4013 14.8539 14.7251 14.4695C15.0289 14.1088 15.4199 13.8329 15.8434 13.6294C16.1738 13.4706 16.4998 13.5622 16.7412 13.8423C17.2629 14.4479 17.7423 15.0844 18.1302 15.7865C18.3689 16.2183 18.3034 16.7461 17.8709 17.0399C17.7657 17.1113 17.6699 17.1952 17.572 17.2758C17.4861 17.3466 17.4053 17.418 17.3464 17.5137C17.2388 17.6887 17.2337 17.8954 17.3029 18.0858C17.8362 19.5515 18.7352 20.6913 20.2106 21.3053C20.4467 21.4035 20.6837 21.5178 20.9558 21.4862C21.4112 21.433 21.5587 20.9333 21.878 20.6723C22.1899 20.4172 22.5887 20.4138 22.9247 20.6265C23.2609 20.8393 23.5866 21.0676 23.9105 21.2984C24.2285 21.525 24.545 21.7465 24.8382 22.0048C25.1202 22.2532 25.2173 22.579 25.0585 22.9159C24.7679 23.5332 24.3448 24.0466 23.7348 24.3744C23.5625 24.4667 23.3567 24.4966 23.1625 24.5565C22.9391 24.4886 23.3567 24.4966 23.1625 24.5565Z" fill="white"/>
<path d="M20.0045 12.9229C22.6849 12.9981 24.8866 14.7769 25.3584 17.4269C25.4388 17.8785 25.4674 18.3401 25.5031 18.7984C25.5182 18.9911 25.409 19.1743 25.201 19.1768C24.9862 19.1794 24.8896 18.9996 24.8755 18.807C24.8479 18.4256 24.8288 18.0424 24.7762 17.6643C24.4988 15.6675 22.9066 14.0155 20.9191 13.6611C20.6199 13.6077 20.314 13.5937 20.0109 13.5619C19.8195 13.5418 19.5687 13.5303 19.5263 13.2922C19.4907 13.0925 19.6591 12.9336 19.8492 12.9234C19.9007 12.9204 19.9527 12.9228 20.0045 12.9229C22.6851 12.9981 19.9527 12.9228 20.0045 12.9229Z" fill="white"/>
<path d="M24.08 18.2044C24.0756 18.2379 24.0733 18.3166 24.0536 18.3906C23.9825 18.6597 23.5744 18.6934 23.4806 18.4219C23.4527 18.3413 23.4485 18.2496 23.4484 18.1629C23.4474 17.5953 23.3241 17.0281 23.0377 16.5341C22.7434 16.0263 22.2938 15.5997 21.7665 15.3413C21.4476 15.1853 21.1028 15.0881 20.7533 15.0304C20.6006 15.0051 20.4462 14.9899 20.2927 14.9685C20.1066 14.9426 20.0073 14.8241 20.0162 14.6408C20.0244 14.4691 20.1499 14.3454 20.3371 14.3561C20.9522 14.391 21.5464 14.5241 22.0934 14.8136C23.2054 15.4026 23.8407 16.3321 24.0262 17.5735C24.0345 17.6298 24.048 17.6854 24.0523 17.7418C24.0627 17.881 24.0694 18.0205 24.08 18.2044C24.0756 18.2378 24.0694 18.0205 24.08 18.2044Z" fill="white"/>
<path d="M22.4118 18.1399C22.1876 18.144 22.0676 18.0198 22.0444 17.8143C22.0284 17.671 22.0156 17.5257 21.9814 17.3862C21.914 17.1114 21.768 16.8569 21.5369 16.6885C21.4279 16.6091 21.3042 16.5512 21.1747 16.5137C21.0103 16.4661 20.8393 16.4792 20.6753 16.4391C20.4971 16.3954 20.3986 16.251 20.4266 16.0839C20.4521 15.9317 20.6 15.813 20.7664 15.8251C21.8056 15.9001 22.5483 16.4373 22.6543 17.6608C22.6619 17.7471 22.6707 17.8383 22.6515 17.921C22.6186 18.0622 22.5139 18.133 22.4118 18.1399C22.1875 18.1439 22.5139 18.133 22.4118 18.1399Z" fill="white"/>
<path d="M30.5787 14.0566L30.5721 14.0302C30.2726 12.8191 29.3837 11.5587 28.2707 10.5996L26.7661 11.933C27.6608 12.6459 28.4273 13.6335 28.6452 14.494C29.2405 17.2211 29.2405 19.9855 28.6452 22.7127C28.2884 24.1222 26.4591 25.8744 25.0057 26.1981C23.103 26.56 21.1851 26.7146 19.2691 26.6616C19.231 26.6605 19.1944 26.6753 19.1679 26.7027C18.8959 26.9817 17.3839 28.5341 17.3839 28.5341L15.4864 30.4816C15.3477 30.6262 15.1039 30.5279 15.1039 30.3281V26.3331C15.1039 26.2671 15.0568 26.2111 14.992 26.1983C14.9916 26.1983 14.9913 26.1981 14.9909 26.1981C14.1648 26.0141 13.218 25.3686 12.4887 24.5871L11.002 25.9045C11.9305 26.9146 13.128 27.7312 14.2963 28.0648V30.4763C14.2963 31.3492 15.36 31.7779 15.9648 31.148L18.4082 28.6082C18.9382 28.6378 19.4683 28.6544 19.9985 28.6544C21.7998 28.6544 23.602 28.484 25.3909 28.1427L25.4159 28.1377C27.6284 27.6554 30.0376 25.3373 30.572 23.1769L30.5785 23.1505C31.2392 20.1332 31.2392 17.0737 30.5787 14.0566Z" fill="#D1D1D1"/>
<path d="M23.1615 24.5567C23.3557 24.4969 22.938 24.4889 23.1615 24.5567V24.5567Z" fill="white"/>
<path d="M24.8372 22.0049C24.544 21.7467 24.2274 21.5251 23.9095 21.2985C23.5856 21.0677 23.2599 20.8394 22.9237 20.6266C22.5877 20.4139 22.189 20.4173 21.877 20.6723C21.5577 20.9334 21.4103 21.433 20.9548 21.4862C20.6828 21.5179 20.4457 21.4035 20.2096 21.3054C19.3019 20.9277 18.6131 20.3502 18.0926 19.6211L16.9863 20.6016C17.0239 20.6451 17.0598 20.6898 17.098 20.7327C18.5919 22.4141 20.4779 23.5109 22.527 24.3612C22.7248 24.4432 22.9378 24.4888 23.1613 24.5566C22.9378 24.4887 23.3556 24.4968 23.1613 24.5566C23.3556 24.4968 23.5613 24.4667 23.7337 24.3744C24.3439 24.0466 24.7668 23.5331 25.0574 22.9159C25.2163 22.5791 25.1192 22.2533 24.8372 22.0049Z" fill="#D1D1D1"/>
<path d="M20.0059 12.9238C20.0081 12.9238 20.0103 12.9241 20.0126 12.9241C20.1613 12.9294 22.5807 12.996 20.0059 12.9238Z" fill="white"/>
<path d="M23.8505 14.5186L23.3789 14.9366C24.1201 15.6577 24.6312 16.6134 24.7773 17.6651C24.8298 18.0434 24.8491 18.4265 24.8766 18.8079C24.8906 19.0006 24.9872 19.1804 25.2022 19.1779C25.4102 19.1753 25.5194 18.9922 25.5043 18.7994C25.4684 18.3411 25.4399 17.8794 25.3595 17.4279C25.1531 16.2679 24.615 15.2749 23.8505 14.5186Z" fill="#D1D1D1"/>
<path d="M24.0258 17.5732C23.8907 16.6686 23.5155 15.9305 22.8922 15.3682L22.4219 15.785C22.6651 16.0008 22.8755 16.2543 23.0375 16.5339C23.3238 17.0279 23.4472 17.5951 23.4481 18.1628C23.4483 18.2495 23.4524 18.3412 23.4803 18.4219C23.5743 18.6936 23.9823 18.6599 24.0534 18.3907C24.073 18.3164 24.0753 18.2378 24.0798 18.2044C24.0753 18.2379 24.069 18.0206 24.0798 18.2044C24.069 18.0206 24.0624 17.8811 24.0519 17.7417C24.0477 17.685 24.0342 17.6294 24.0258 17.5732Z" fill="#D1D1D1"/>
<path d="M24.0801 18.2047C24.0695 18.0208 24.0756 18.238 24.0801 18.2047V18.2047Z" fill="white"/>
<path d="M22.4115 18.1401C22.415 18.1399 22.4184 18.1381 22.4217 18.1377C22.4123 18.1377 22.3977 18.1379 22.3828 18.1385C22.3925 18.1387 22.4013 18.1402 22.4115 18.1401Z" fill="white"/>
<path d="M22.4125 18.1374C22.4025 18.1375 22.3936 18.1361 22.3839 18.1357C22.3353 18.1371 22.2852 18.1397 22.4125 18.1374Z" fill="white"/>
<path d="M22.4204 18.1377C22.4169 18.1381 22.4135 18.1399 22.4102 18.1401C22.4364 18.1383 22.4341 18.1377 22.4204 18.1377Z" fill="white"/>
<path d="M21.9397 16.2119L21.4609 16.6363C21.4873 16.6523 21.5132 16.669 21.5383 16.6872C21.7694 16.8556 21.9154 17.1101 21.9827 17.3849C22.017 17.5244 22.0296 17.6696 22.0458 17.813C22.0679 18.0093 22.1794 18.13 22.3845 18.1371C22.3995 18.1367 22.4142 18.1364 22.4235 18.1363C22.5222 18.1254 22.6212 18.0561 22.6528 17.9196C22.672 17.837 22.6632 17.7457 22.6556 17.6593C22.5961 16.9754 22.3375 16.5061 21.9397 16.2119Z" fill="#D1D1D1"/>
</svg>
