<svg width="45" height="13" viewBox="0 0 45 13" fill="none" xmlns="http://www.w3.org/2000/svg">
<path d="M0.568182 12H1.47727C3.79261 12 5.02131 10.4659 5.20597 6.80114L5.37642 3.47017H8.06818V12H10.9517V1.09091H2.65625L2.47869 5.92045C2.37216 8.68324 1.94602 9.59943 0.916193 9.59943H0.553977L0.568182 12ZM18.2262 12.2131C21.5359 12.2131 23.5955 9.94744 23.5955 6.58807C23.5955 3.20739 21.5359 0.948864 18.2262 0.948864C14.9165 0.948864 12.8569 3.20739 12.8569 6.58807C12.8569 9.94744 14.9165 12.2131 18.2262 12.2131ZM18.2404 9.86932C16.7134 9.86932 15.9322 8.47017 15.9322 6.56676C15.9322 4.66335 16.7134 3.2571 18.2404 3.2571C19.739 3.2571 20.5202 4.66335 20.5202 6.56676C20.5202 8.47017 19.739 9.86932 18.2404 9.86932ZM33.0344 1.09091H25.5629V12H28.5032V3.47017H33.0344V1.09091ZM39.4176 12.2131C42.7273 12.2131 44.7869 9.94744 44.7869 6.58807C44.7869 3.20739 42.7273 0.948864 39.4176 0.948864C36.108 0.948864 34.0483 3.20739 34.0483 6.58807C34.0483 9.94744 36.108 12.2131 39.4176 12.2131ZM39.4318 9.86932C37.9048 9.86932 37.1236 8.47017 37.1236 6.56676C37.1236 4.66335 37.9048 3.2571 39.4318 3.2571C40.9304 3.2571 41.7116 4.66335 41.7116 6.56676C41.7116 8.47017 40.9304 9.86932 39.4318 9.86932Z" fill="#0A1C46"/>
</svg>
