<svg width="280" height="180" viewBox="0 0 280 180" fill="none" xmlns="http://www.w3.org/2000/svg">
<rect width="280" height="180" rx="20" fill="white"/>
<g filter="url(#filter0_d)">
<path d="M25 106.104C25 106.104 34.1623 117.933 46.1006 117.933C58.039 117.933 70.2562 93.2417 87.6597 93.2417C105.063 93.2417 109.455 102.03 124.866 102.03C140.277 102.03 148.777 55.8335 171.526 55.8335C194.275 55.8335 200.207 71.8845 220.649 71.8845C241.091 71.8845 255 86.8834 255 86.8834" stroke="#FF575F" stroke-width="2" stroke-linecap="round" stroke-linejoin="round"/>
</g>
<g filter="url(#filter1_d)">
<path d="M255 67.6633C255 67.6633 245.838 55.8337 233.899 55.8337C221.961 55.8337 209.744 80.5254 192.34 80.5254C174.937 80.5254 170.545 71.7368 155.134 71.7368C139.723 71.7368 131.223 117.934 108.474 117.934C85.7248 117.934 79.7933 101.883 59.351 101.883C38.9088 101.883 25 86.8837 25 86.8837" stroke="#FFC542" stroke-width="2" stroke-linecap="round" stroke-linejoin="round"/>
</g>
<g filter="url(#filter2_d)">
<path fill-rule="evenodd" clip-rule="evenodd" d="M173.244 59.6667C175.375 59.6667 177.103 57.9504 177.103 55.8333C177.103 53.7162 175.375 52 173.244 52C171.113 52 169.385 53.7162 169.385 55.8333C169.385 57.9504 171.113 59.6667 173.244 59.6667Z" fill="white"/>
<path d="M176.103 55.8333C176.103 57.3918 174.829 58.6667 173.244 58.6667C171.658 58.6667 170.385 57.3918 170.385 55.8333C170.385 54.2748 171.658 53 173.244 53C174.829 53 176.103 54.2748 176.103 55.8333Z" stroke="#FF575F" stroke-width="2"/>
</g>
<g filter="url(#filter3_d)">
<path fill-rule="evenodd" clip-rule="evenodd" d="M99.8649 121C101.996 121 103.724 119.283 103.724 117.166C103.724 115.049 101.996 113.333 99.8649 113.333C97.7336 113.333 96.0059 115.049 96.0059 117.166C96.0059 119.283 97.7336 121 99.8649 121Z" fill="white"/>
<path d="M102.724 117.166C102.724 118.725 101.45 120 99.8649 120C98.2796 120 97.0059 118.725 97.0059 117.166C97.0059 115.608 98.2796 114.333 99.8649 114.333C101.45 114.333 102.724 115.608 102.724 117.166Z" stroke="#FFC542" stroke-width="2"/>
</g>
<path d="M25.3807 42.8068H27.7443V40H34.7614V42.7955H37.125V38.0398H35.8523V28.3636H28.1534L27.8239 33.2841C27.625 36.3295 26.9716 37.4602 26.1705 38.0398H25.3807V42.8068ZM29.0114 38.0398C29.5966 37.0795 30.0341 35.5852 30.1875 33.2841L30.3693 30.392H33.4886V38.0398H29.0114ZM42.5185 40.1705C45.1662 40.1705 46.8139 38.358 46.8139 35.6705C46.8139 32.9659 45.1662 31.1591 42.5185 31.1591C39.8707 31.1591 38.223 32.9659 38.223 35.6705C38.223 38.358 39.8707 40.1705 42.5185 40.1705ZM42.5298 38.2955C41.3082 38.2955 40.6832 37.1761 40.6832 35.6534C40.6832 34.1307 41.3082 33.0057 42.5298 33.0057C43.7287 33.0057 44.3537 34.1307 44.3537 35.6534C44.3537 37.1761 43.7287 38.2955 42.5298 38.2955ZM50.0824 31.2727H47.5824L50.0824 35.6364L47.4915 40H49.9915L51.6847 36.983L53.4062 40H55.8778L53.2812 35.6364L55.8097 31.2727H53.3267L51.6847 34.3239L50.0824 31.2727ZM60.8622 40.1705C63.5099 40.1705 65.1577 38.358 65.1577 35.6705C65.1577 32.9659 63.5099 31.1591 60.8622 31.1591C58.2145 31.1591 56.5668 32.9659 56.5668 35.6705C56.5668 38.358 58.2145 40.1705 60.8622 40.1705ZM60.8736 38.2955C59.652 38.2955 59.027 37.1761 59.027 35.6534C59.027 34.1307 59.652 33.0057 60.8736 33.0057C62.0724 33.0057 62.6974 34.1307 62.6974 35.6534C62.6974 37.1761 62.0724 38.2955 60.8736 38.2955ZM66.0497 42.5568H68.4134V40H73.7486V42.5568H76.0554V38.0795H74.7031V31.2727H68.0099L67.7827 34.125C67.6463 35.8409 67.4815 37.5966 66.7202 38.0795H66.0497V42.5568ZM69.1293 38.0795C69.6463 37.267 69.8452 35.9886 69.9759 34.125L70.0668 33.1364H72.419V38.0795H69.1293ZM79.7784 33.9545V31.2727H77.4659V40H81.5909C83.9034 40 85.2614 38.7898 85.267 36.9886C85.2614 35.1534 83.9034 33.9545 81.5909 33.9545H79.7784ZM86.2045 40H88.625V31.2727H86.2045V40ZM79.7784 35.858H81.5909C82.4034 35.858 82.9773 36.3352 82.9886 37.0057C82.9773 37.642 82.4034 38.0966 81.5909 38.0966H79.7784V35.858Z" fill="#041142"/>
<path d="M154.589 39.1392C156.876 39.1392 158.511 37.8814 158.506 36.1413C158.511 34.8736 157.706 33.9688 156.21 33.7798V33.7003C157.348 33.4964 158.134 32.6911 158.129 31.5476C158.134 29.9418 156.727 28.679 154.619 28.679C152.531 28.679 150.96 29.902 150.93 31.6619H152.993C153.018 30.8864 153.729 30.3842 154.609 30.3842C155.479 30.3842 156.06 30.9112 156.055 31.6768C156.06 32.4773 155.379 33.0192 154.4 33.0192H153.45V34.6001H154.4C155.553 34.6001 156.274 35.1768 156.269 35.9972C156.274 36.8075 155.578 37.3643 154.594 37.3643C153.644 37.3643 152.933 36.8672 152.893 36.1214H150.726C150.761 37.9013 152.352 39.1392 154.589 39.1392ZM163.773 39.1392C166.04 39.1392 167.581 37.6626 167.576 35.6044C167.581 33.6555 166.219 32.2536 164.384 32.2536C163.489 32.2536 162.719 32.6264 162.361 33.1286H162.301L162.564 30.5781H167.014V28.8182H160.79L160.307 34.1875L162.221 34.5305C162.535 34.108 163.141 33.8445 163.743 33.8445C164.767 33.8494 165.503 34.5902 165.503 35.6591C165.503 36.718 164.782 37.4489 163.773 37.4489C162.917 37.4489 162.226 36.9119 162.177 36.1214H160.089C160.128 37.8814 161.665 39.1392 163.773 39.1392ZM173.069 39.2237C175.63 39.2237 177.176 37.2749 177.181 33.919C177.186 30.5881 175.62 28.679 173.069 28.679C170.514 28.679 168.963 30.5831 168.958 33.919C168.948 37.2649 170.504 39.2188 173.069 39.2237ZM173.069 37.4389C171.901 37.4389 171.145 36.2656 171.15 33.919C171.155 31.6072 171.906 30.4439 173.069 30.4439C174.228 30.4439 174.983 31.6072 174.983 33.919C174.988 36.2656 174.233 37.4389 173.069 37.4389ZM182.708 39.2237C185.268 39.2237 186.815 37.2749 186.82 33.919C186.825 30.5881 185.259 28.679 182.708 28.679C180.153 28.679 178.602 30.5831 178.597 33.919C178.587 37.2649 180.143 39.2188 182.708 39.2237ZM182.708 37.4389C181.54 37.4389 180.784 36.2656 180.789 33.919C180.794 31.6072 181.545 30.4439 182.708 30.4439C183.866 30.4439 184.622 31.6072 184.622 33.919C184.627 36.2656 183.871 37.4389 182.708 37.4389ZM191.551 40.2727H192.725L192.735 39.1243C194.887 38.9602 196.135 37.8168 196.14 36.0916C196.135 34.3963 194.857 33.4964 193.088 33.0987L192.794 33.0291L192.814 30.5433C193.475 30.6974 193.878 31.12 193.938 31.7464H196.001C195.976 30.1009 194.748 28.9226 192.834 28.7138L192.844 27.5455H191.671L191.661 28.7038C189.717 28.8928 188.345 30.0661 188.355 31.7614C188.35 33.2628 189.409 34.1229 191.129 34.5355L191.606 34.6548L191.581 37.2848C190.771 37.1307 190.224 36.6335 190.169 35.8033H188.086C188.136 37.8118 189.453 38.9354 191.561 39.1193L191.551 40.2727ZM192.754 37.2848L192.774 34.9631C193.545 35.2067 193.963 35.5199 193.968 36.0866C193.963 36.6882 193.505 37.1357 192.754 37.2848ZM191.621 32.7259C190.999 32.5121 190.552 32.1889 190.562 31.6172C190.562 31.0852 190.94 30.6726 191.641 30.5284L191.621 32.7259Z" fill="#949FCA"/>
<path d="M82.228 145H84.4503L88.6761 136.603V134.818H81.532V136.578H86.4489V136.648L82.228 145ZM93.9249 145.224C96.4853 145.224 98.0314 143.275 98.0364 139.919C98.0414 136.588 96.4753 134.679 93.9249 134.679C91.3695 134.679 89.8184 136.583 89.8134 139.919C89.8034 143.265 91.3596 145.219 93.9249 145.224ZM93.9249 143.439C92.7566 143.439 92.0009 142.266 92.0059 139.919C92.0108 137.607 92.7615 136.444 93.9249 136.444C95.0833 136.444 95.839 137.607 95.839 139.919C95.8439 142.266 95.0882 143.439 93.9249 143.439ZM103.564 145.224C106.124 145.224 107.67 143.275 107.675 139.919C107.68 136.588 106.114 134.679 103.564 134.679C101.008 134.679 99.457 136.583 99.4521 139.919C99.4421 143.265 100.998 145.219 103.564 145.224ZM103.564 143.439C102.395 143.439 101.64 142.266 101.645 139.919C101.65 137.607 102.4 136.444 103.564 136.444C104.722 136.444 105.478 137.607 105.478 139.919C105.483 142.266 104.727 143.439 103.564 143.439ZM112.407 146.273H113.58L113.59 145.124C115.743 144.96 116.991 143.817 116.996 142.092C116.991 140.396 115.713 139.496 113.943 139.099L113.65 139.029L113.67 136.543C114.331 136.697 114.733 137.12 114.793 137.746H116.856C116.831 136.101 115.604 134.923 113.689 134.714L113.699 133.545H112.526L112.516 134.704C110.572 134.893 109.2 136.066 109.21 137.761C109.205 139.263 110.264 140.123 111.984 140.536L112.461 140.655L112.437 143.285C111.626 143.131 111.079 142.634 111.025 141.803H108.942C108.991 143.812 110.309 144.935 112.417 145.119L112.407 146.273ZM113.61 143.285L113.63 140.963C114.4 141.207 114.818 141.52 114.823 142.087C114.818 142.688 114.361 143.136 113.61 143.285ZM112.476 138.726C111.855 138.512 111.407 138.189 111.417 137.617C111.417 137.085 111.795 136.673 112.496 136.528L112.476 138.726Z" fill="#949FCA"/>
<path d="M184.011 151H186.472V147.227H188.54C191.216 147.227 192.773 145.631 192.773 143.307C192.773 140.994 191.244 139.364 188.602 139.364H184.011V151ZM186.472 145.256V141.375H188.131C189.551 141.375 190.239 142.148 190.239 143.307C190.239 144.46 189.551 145.256 188.142 145.256H186.472ZM196.58 151.165C197.869 151.165 198.705 150.602 199.131 149.79H199.199V151H201.494V145.114C201.494 143.034 199.733 142.159 197.79 142.159C195.699 142.159 194.324 143.159 193.989 144.75L196.227 144.932C196.392 144.352 196.909 143.926 197.778 143.926C198.602 143.926 199.074 144.341 199.074 145.057V145.091C199.074 145.653 198.477 145.727 196.96 145.875C195.233 146.034 193.682 146.614 193.682 148.562C193.682 150.29 194.915 151.165 196.58 151.165ZM197.273 149.494C196.528 149.494 195.994 149.148 195.994 148.483C195.994 147.801 196.557 147.466 197.409 147.347C197.938 147.273 198.801 147.148 199.091 146.955V147.881C199.091 148.795 198.335 149.494 197.273 149.494ZM207.315 151.17C209.639 151.17 211.099 149.807 211.213 147.801H208.929C208.787 148.733 208.173 149.256 207.344 149.256C206.213 149.256 205.48 148.307 205.48 146.636C205.48 144.989 206.219 144.045 207.344 144.045C208.23 144.045 208.798 144.631 208.929 145.5H211.213C211.111 143.483 209.582 142.159 207.304 142.159C204.656 142.159 203.02 143.994 203.02 146.67C203.02 149.324 204.628 151.17 207.315 151.17ZM214.754 142.273H212.254L214.754 146.636L212.163 151H214.663L216.357 147.983L218.078 151H220.55L217.953 146.636L220.482 142.273H217.999L216.357 145.324L214.754 142.273ZM225.534 151.17C228.182 151.17 229.83 149.358 229.83 146.67C229.83 143.966 228.182 142.159 225.534 142.159C222.886 142.159 221.239 143.966 221.239 146.67C221.239 149.358 222.886 151.17 225.534 151.17ZM225.545 149.295C224.324 149.295 223.699 148.176 223.699 146.653C223.699 145.131 224.324 144.006 225.545 144.006C226.744 144.006 227.369 145.131 227.369 146.653C227.369 148.176 226.744 149.295 225.545 149.295ZM230.722 153.557H233.085V151H238.42V153.557H240.727V149.08H239.375V142.273H232.682L232.455 145.125C232.318 146.841 232.153 148.597 231.392 149.08H230.722V153.557ZM233.801 149.08C234.318 148.267 234.517 146.989 234.648 145.125L234.739 144.136H237.091V149.08H233.801ZM244.45 144.955V142.273H242.138V151H246.263C248.575 151 249.933 149.79 249.939 147.989C249.933 146.153 248.575 144.955 246.263 144.955H244.45ZM250.876 151H253.297V142.273H250.876V151ZM244.45 146.858H246.263C247.075 146.858 247.649 147.335 247.661 148.006C247.649 148.642 247.075 149.097 246.263 149.097H244.45V146.858Z" fill="#9FA4B8"/>
<defs>
<filter id="filter0_d" x="20" y="50.8335" width="240" height="72.0999" filterUnits="userSpaceOnUse" color-interpolation-filters="sRGB">
<feFlood flood-opacity="0" result="BackgroundImageFix"/>
<feColorMatrix in="SourceAlpha" type="matrix" values="0 0 0 0 0 0 0 0 0 0 0 0 0 0 0 0 0 0 127 0"/>
<feOffset/>
<feGaussianBlur stdDeviation="2"/>
<feColorMatrix type="matrix" values="0 0 0 0 1 0 0 0 0 0.341176 0 0 0 0 0.372549 0 0 0 1 0"/>
<feBlend mode="normal" in2="BackgroundImageFix" result="effect1_dropShadow"/>
<feBlend mode="normal" in="SourceGraphic" in2="effect1_dropShadow" result="shape"/>
</filter>
<filter id="filter1_d" x="20" y="50.8335" width="240" height="72.0999" filterUnits="userSpaceOnUse" color-interpolation-filters="sRGB">
<feFlood flood-opacity="0" result="BackgroundImageFix"/>
<feColorMatrix in="SourceAlpha" type="matrix" values="0 0 0 0 0 0 0 0 0 0 0 0 0 0 0 0 0 0 127 0"/>
<feOffset/>
<feGaussianBlur stdDeviation="2"/>
<feColorMatrix type="matrix" values="0 0 0 0 1 0 0 0 0 0.772549 0 0 0 0 0.258824 0 0 0 1 0"/>
<feBlend mode="normal" in2="BackgroundImageFix" result="effect1_dropShadow"/>
<feBlend mode="normal" in="SourceGraphic" in2="effect1_dropShadow" result="shape"/>
</filter>
<filter id="filter2_d" x="165.385" y="48" width="15.7181" height="15.6667" filterUnits="userSpaceOnUse" color-interpolation-filters="sRGB">
<feFlood flood-opacity="0" result="BackgroundImageFix"/>
<feColorMatrix in="SourceAlpha" type="matrix" values="0 0 0 0 0 0 0 0 0 0 0 0 0 0 0 0 0 0 127 0"/>
<feOffset/>
<feGaussianBlur stdDeviation="2"/>
<feColorMatrix type="matrix" values="0 0 0 0 1 0 0 0 0 0.341176 0 0 0 0 0.372549 0 0 0 1 0"/>
<feBlend mode="normal" in2="BackgroundImageFix" result="effect1_dropShadow"/>
<feBlend mode="normal" in="SourceGraphic" in2="effect1_dropShadow" result="shape"/>
</filter>
<filter id="filter3_d" x="92.0059" y="109.333" width="15.7181" height="15.6667" filterUnits="userSpaceOnUse" color-interpolation-filters="sRGB">
<feFlood flood-opacity="0" result="BackgroundImageFix"/>
<feColorMatrix in="SourceAlpha" type="matrix" values="0 0 0 0 0 0 0 0 0 0 0 0 0 0 0 0 0 0 127 0"/>
<feOffset/>
<feGaussianBlur stdDeviation="2"/>
<feColorMatrix type="matrix" values="0 0 0 0 1 0 0 0 0 0.341176 0 0 0 0 0.372549 0 0 0 1 0"/>
<feBlend mode="normal" in2="BackgroundImageFix" result="effect1_dropShadow"/>
<feBlend mode="normal" in="SourceGraphic" in2="effect1_dropShadow" result="shape"/>
</filter>
</defs>
</svg>
